<svg width="200" height="231" viewBox="0 0 200 231" fill="none" xmlns="http://www.w3.org/2000/svg">
<path d="M72.7227 224.633V228.734C72.7227 229.411 72.7585 229.835 72.8301 230.004C72.9082 230.173 73.0547 230.323 73.2695 230.453C73.4909 230.577 73.7871 230.639 74.1582 230.639H74.5977V231H67.6738V230.639H68.1133C68.4974 230.639 68.8066 230.57 69.041 230.434C69.2103 230.342 69.3405 230.186 69.4316 229.965C69.5033 229.809 69.5391 229.398 69.5391 228.734V220.023C69.5391 219.346 69.5033 218.923 69.4316 218.754C69.36 218.585 69.2135 218.438 68.9922 218.314C68.7773 218.184 68.4844 218.119 68.1133 218.119H67.6738V217.758H74.5977V218.119H74.1582C73.7741 218.119 73.4648 218.188 73.2305 218.324C73.0612 218.415 72.9277 218.572 72.8301 218.793C72.7585 218.949 72.7227 219.359 72.7227 220.023V223.773H77.4004V220.023C77.4004 219.346 77.3646 218.923 77.293 218.754C77.2214 218.585 77.0749 218.438 76.8535 218.314C76.6322 218.184 76.3359 218.119 75.9648 218.119H75.5352V217.758H82.4492V218.119H82.0195C81.6289 218.119 81.3197 218.188 81.0918 218.324C80.9225 218.415 80.7891 218.572 80.6914 218.793C80.6198 218.949 80.584 219.359 80.584 220.023V228.734C80.584 229.411 80.6198 229.835 80.6914 230.004C80.763 230.173 80.9095 230.323 81.1309 230.453C81.3522 230.577 81.6484 230.639 82.0195 230.639H82.4492V231H75.5352V230.639H75.9648C76.3555 230.639 76.6647 230.57 76.8926 230.434C77.0618 230.342 77.1953 230.186 77.293 229.965C77.3646 229.809 77.4004 229.398 77.4004 228.734V224.633H72.7227Z" fill="#808080"/>
<path d="M91.1406 227.23H86.4629L85.9062 228.52C85.724 228.949 85.6328 229.304 85.6328 229.584C85.6328 229.955 85.7826 230.229 86.082 230.404C86.2578 230.508 86.6908 230.587 87.3809 230.639V231H82.9766V230.639C83.4518 230.567 83.8424 230.372 84.1484 230.053C84.4544 229.727 84.832 229.06 85.2812 228.051L90.0176 217.484H90.2031L94.9785 228.344C95.4342 229.372 95.8086 230.02 96.1016 230.287C96.3229 230.489 96.6354 230.606 97.0391 230.639V231H90.6328V230.639H90.8965C91.4108 230.639 91.7721 230.567 91.9805 230.424C92.1237 230.32 92.1953 230.17 92.1953 229.975C92.1953 229.857 92.1758 229.737 92.1367 229.613C92.1237 229.555 92.026 229.311 91.8438 228.881L91.1406 227.23ZM90.8086 226.508L88.8359 221.947L86.8047 226.508H90.8086Z" fill="#808080"/>
<path d="M106.17 223.979C107.426 224.271 108.309 224.626 108.816 225.043C109.546 225.635 109.91 226.404 109.91 227.348C109.91 228.344 109.51 229.167 108.709 229.818C107.726 230.606 106.297 231 104.422 231H97.6934V230.639C98.3053 230.639 98.7188 230.583 98.9336 230.473C99.1549 230.355 99.3079 230.206 99.3926 230.023C99.4837 229.841 99.5293 229.392 99.5293 228.676V220.082C99.5293 219.366 99.4837 218.917 99.3926 218.734C99.3079 218.546 99.1549 218.396 98.9336 218.285C98.7122 218.174 98.2988 218.119 97.6934 218.119V217.758H104.041C105.558 217.758 106.632 217.895 107.264 218.168C107.895 218.435 108.393 218.839 108.758 219.379C109.122 219.913 109.305 220.482 109.305 221.088C109.305 221.726 109.074 222.296 108.611 222.797C108.149 223.292 107.335 223.686 106.17 223.979ZM102.615 223.715C103.54 223.715 104.22 223.611 104.656 223.402C105.099 223.194 105.438 222.901 105.672 222.523C105.906 222.146 106.023 221.664 106.023 221.078C106.023 220.492 105.906 220.014 105.672 219.643C105.444 219.265 105.115 218.979 104.686 218.783C104.256 218.588 103.566 218.493 102.615 218.5V223.715ZM102.615 224.477V228.725L102.605 229.213C102.605 229.564 102.693 229.831 102.869 230.014C103.051 230.189 103.318 230.277 103.67 230.277C104.191 230.277 104.669 230.163 105.105 229.936C105.548 229.701 105.887 229.366 106.121 228.93C106.355 228.487 106.473 227.995 106.473 227.455C106.473 226.837 106.329 226.283 106.043 225.795C105.757 225.3 105.363 224.955 104.861 224.76C104.36 224.564 103.611 224.47 102.615 224.477Z" fill="#808080"/>
<path d="M117.938 230.639V231H111.014V230.639H111.453C111.837 230.639 112.146 230.57 112.381 230.434C112.55 230.342 112.68 230.186 112.771 229.965C112.843 229.809 112.879 229.398 112.879 228.734V220.023C112.879 219.346 112.843 218.923 112.771 218.754C112.7 218.585 112.553 218.438 112.332 218.314C112.117 218.184 111.824 218.119 111.453 218.119H111.014V217.758H117.938V218.119H117.498C117.114 218.119 116.805 218.188 116.57 218.324C116.401 218.415 116.268 218.572 116.17 218.793C116.098 218.949 116.062 219.359 116.062 220.023V228.734C116.062 229.411 116.098 229.835 116.17 230.004C116.248 230.173 116.395 230.323 116.609 230.453C116.831 230.577 117.127 230.639 117.498 230.639H117.938Z" fill="#808080"/>
<path d="M131.023 217.758V221.342H130.672C130.464 220.515 130.232 219.923 129.979 219.564C129.725 219.2 129.376 218.91 128.934 218.695C128.686 218.578 128.253 218.52 127.635 218.52H126.648V228.734C126.648 229.411 126.684 229.835 126.756 230.004C126.834 230.173 126.98 230.323 127.195 230.453C127.417 230.577 127.716 230.639 128.094 230.639H128.533V231H121.6V230.639H122.039C122.423 230.639 122.732 230.57 122.967 230.434C123.136 230.342 123.27 230.186 123.367 229.965C123.439 229.809 123.475 229.398 123.475 228.734V218.52H122.518C121.626 218.52 120.978 218.708 120.574 219.086C120.008 219.613 119.65 220.365 119.5 221.342H119.129V217.758H131.023Z" fill="#808080"/>
<path d="M200 100C200 155.228 155.228 200 100 200C44.7715 200 0 155.228 0 100C0 44.7715 44.7715 0 100 0C155.228 0 200 44.7715 200 100Z" fill="#808080"/>
<path fill-rule="evenodd" clip-rule="evenodd" d="M147.364 36.1224L157.493 38.886C158.414 39.1372 159.154 39.7492 159.591 40.5274C160.036 41.3127 160.183 42.2654 159.937 43.1982L153.834 66.3891C153.588 67.3283 152.987 68.0814 152.224 68.5265C151.452 68.9807 150.517 69.1289 149.601 68.8789L139.471 66.1153C138.549 65.8641 137.809 65.2528 137.373 64.4746C136.927 63.69 136.781 62.7378 137.027 61.8031L143.13 38.6077C143.377 37.6691 143.978 36.9154 144.742 36.4703C145.512 36.0174 146.442 35.8705 147.364 36.1224ZM160.868 49.3213C160.654 48.9579 160.771 48.4864 161.128 48.2687C161.485 48.0516 161.947 48.1701 162.161 48.5334L163.893 51.4735C164.107 51.8368 163.99 52.3084 163.633 52.5255L161.47 53.6438L162.783 55.519C163.024 55.8643 162.945 56.3436 162.605 56.5897C162.572 56.6135 162.537 56.6348 162.502 56.6522L160.335 57.7492L161.648 60.0387C161.856 60.4059 161.733 60.8755 161.372 61.0881L158.398 62.8886C158.041 63.1044 157.58 62.9846 157.368 62.6212C157.156 62.2573 157.273 61.787 157.63 61.5719L159.968 60.1546L158.602 57.7673C158.418 57.3872 158.571 56.9266 158.944 56.7391L161.041 55.6769L159.742 53.819C159.717 53.7849 159.694 53.7475 159.674 53.7082C159.487 53.3294 159.636 52.8682 160.008 52.6769L162.183 51.5547L160.868 49.3213ZM138.584 42.1005C138.947 41.8944 139.406 42.0277 139.608 42.3981C139.81 42.7685 139.679 43.2356 139.316 43.4411L137.08 44.7056L138.415 46.7883C138.641 47.1433 138.542 47.6187 138.193 47.8493C138.154 47.8751 138.113 47.897 138.071 47.915L136.045 48.8562L137.342 50.8467C137.572 51.2004 137.476 51.6771 137.129 51.9109L134.779 53.2818L136.107 55.6975C136.311 56.0679 136.182 56.5362 135.818 56.7443C135.454 56.9517 134.995 56.8197 134.791 56.4492L133.1 53.3739C132.893 53.0048 133.018 52.5351 133.38 52.3245L135.638 51.0103L134.299 48.956C134.279 48.9225 134.26 48.8871 134.244 48.8504C134.071 48.4658 134.237 48.0103 134.616 47.8345L136.673 46.8785L135.348 44.8081C135.146 44.4376 135.277 43.9706 135.64 43.7651L138.584 42.1005ZM145.499 63.8381C146.254 64.0443 146.709 64.8321 146.504 65.6103C146.301 66.3807 145.528 66.8433 144.763 66.6346C144.293 66.507 143.94 66.154 143.789 65.7192C143.697 65.4531 143.68 65.1568 143.757 64.8611C143.959 64.0926 144.733 63.6288 145.499 63.8381ZM138.202 60.7061L153.355 64.8405L159.028 43.28L143.876 39.1463L138.202 60.7061Z" fill="white"/>
<path d="M109.211 87.4545V78.4545H110.183V79.4943H110.302C110.376 79.3807 110.479 79.2358 110.609 79.0597C110.743 78.8807 110.933 78.7216 111.18 78.5824C111.43 78.4403 111.768 78.3693 112.194 78.3693C112.746 78.3693 113.231 78.5071 113.652 78.7827C114.072 79.0582 114.4 79.4489 114.636 79.9545C114.872 80.4602 114.99 81.0568 114.99 81.7443C114.99 82.4375 114.872 83.0384 114.636 83.5469C114.4 84.0526 114.074 84.4446 113.656 84.723C113.238 84.9986 112.757 85.1364 112.211 85.1364C111.791 85.1364 111.454 85.0668 111.202 84.9276C110.949 84.7855 110.754 84.625 110.618 84.446C110.481 84.2642 110.376 84.1136 110.302 83.9943H110.217V87.4545H109.211ZM110.2 81.7273C110.2 82.2216 110.273 82.6577 110.417 83.0355C110.562 83.4105 110.774 83.7045 111.052 83.9176C111.331 84.1278 111.672 84.233 112.075 84.233C112.496 84.233 112.846 84.1222 113.128 83.9006C113.412 83.6761 113.625 83.375 113.767 82.9972C113.912 82.6165 113.984 82.1932 113.984 81.7273C113.984 81.267 113.913 80.8523 113.771 80.483C113.632 80.1108 113.42 79.8168 113.136 79.6009C112.855 79.3821 112.501 79.2727 112.075 79.2727C111.666 79.2727 111.322 79.3764 111.044 79.5838C110.765 79.7884 110.555 80.0753 110.413 80.4446C110.271 80.8111 110.2 81.2386 110.2 81.7273Z" fill="white"/>
<path d="M117.53 81.0625V85H116.524V76.2727H117.53V79.4773H117.615C117.768 79.1392 117.998 78.8707 118.305 78.6719C118.615 78.4702 119.027 78.3693 119.541 78.3693C119.987 78.3693 120.378 78.4588 120.713 78.6378C121.048 78.8139 121.308 79.0852 121.493 79.4517C121.68 79.8153 121.774 80.2784 121.774 80.8409V85H120.768V80.9091C120.768 80.3892 120.633 79.9872 120.363 79.7031C120.096 79.4162 119.726 79.2727 119.251 79.2727C118.922 79.2727 118.626 79.3423 118.365 79.4815C118.106 79.6207 117.902 79.8239 117.751 80.0909C117.604 80.358 117.53 80.6818 117.53 81.0625Z" fill="white"/>
<path d="M126.273 85.1364C125.682 85.1364 125.164 84.9957 124.718 84.7145C124.274 84.4332 123.928 84.0398 123.678 83.5341C123.431 83.0284 123.307 82.4375 123.307 81.7614C123.307 81.0795 123.431 80.4844 123.678 79.9759C123.928 79.4673 124.274 79.0724 124.718 78.7912C125.164 78.5099 125.682 78.3693 126.273 78.3693C126.864 78.3693 127.381 78.5099 127.824 78.7912C128.27 79.0724 128.617 79.4673 128.864 79.9759C129.114 80.4844 129.239 81.0795 129.239 81.7614C129.239 82.4375 129.114 83.0284 128.864 83.5341C128.617 84.0398 128.27 84.4332 127.824 84.7145C127.381 84.9957 126.864 85.1364 126.273 85.1364ZM126.273 84.233C126.722 84.233 127.091 84.1179 127.381 83.8878C127.671 83.6577 127.885 83.3551 128.024 82.9801C128.164 82.6051 128.233 82.1989 128.233 81.7614C128.233 81.3239 128.164 80.9162 128.024 80.5384C127.885 80.1605 127.671 79.8551 127.381 79.6222C127.091 79.3892 126.722 79.2727 126.273 79.2727C125.824 79.2727 125.455 79.3892 125.165 79.6222C124.875 79.8551 124.661 80.1605 124.521 80.5384C124.382 80.9162 124.313 81.3239 124.313 81.7614C124.313 82.1989 124.382 82.6051 124.521 82.9801C124.661 83.3551 124.875 83.6577 125.165 83.8878C125.455 84.1179 125.824 84.233 126.273 84.233Z" fill="white"/>
<path d="M131.78 81.0625V85H130.774V78.4545H131.746V79.4773H131.831C131.984 79.1449 132.217 78.8778 132.53 78.6761C132.842 78.4716 133.246 78.3693 133.74 78.3693C134.183 78.3693 134.571 78.4602 134.903 78.642C135.236 78.821 135.494 79.0938 135.679 79.4602C135.863 79.8239 135.956 80.2841 135.956 80.8409V85H134.95V80.9091C134.95 80.3949 134.817 79.9943 134.55 79.7074C134.282 79.4176 133.916 79.2727 133.45 79.2727C133.129 79.2727 132.842 79.3423 132.589 79.4815C132.339 79.6207 132.142 79.8239 131.997 80.0909C131.852 80.358 131.78 80.6818 131.78 81.0625Z" fill="white"/>
<path d="M140.538 85.1364C139.907 85.1364 139.363 84.9972 138.906 84.7188C138.451 84.4375 138.1 84.0455 137.853 83.5426C137.609 83.0369 137.487 82.4489 137.487 81.7784C137.487 81.108 137.609 80.517 137.853 80.0057C138.1 79.4915 138.444 79.0909 138.884 78.804C139.328 78.5142 139.845 78.3693 140.436 78.3693C140.776 78.3693 141.113 78.4261 141.445 78.5398C141.778 78.6534 142.08 78.8381 142.353 79.0938C142.626 79.3466 142.843 79.6818 143.005 80.0994C143.167 80.517 143.248 81.0312 143.248 81.642V82.0682H138.203V81.1989H142.225C142.225 80.8295 142.151 80.5 142.004 80.2102C141.859 79.9205 141.651 79.6918 141.382 79.5241C141.115 79.3565 140.799 79.2727 140.436 79.2727C140.035 79.2727 139.688 79.3722 139.396 79.571C139.106 79.767 138.883 80.0227 138.727 80.3381C138.57 80.6534 138.492 80.9915 138.492 81.3523V81.9318C138.492 82.4261 138.578 82.8452 138.748 83.1889C138.921 83.5298 139.161 83.7898 139.468 83.9688C139.775 84.1449 140.132 84.233 140.538 84.233C140.802 84.233 141.041 84.196 141.254 84.1222C141.47 84.0455 141.656 83.9318 141.812 83.7812C141.968 83.6278 142.089 83.4375 142.174 83.2102L143.146 83.483C143.043 83.8125 142.872 84.1023 142.63 84.3523C142.389 84.5994 142.09 84.7926 141.735 84.9318C141.38 85.0682 140.981 85.1364 140.538 85.1364Z" fill="white"/>
<path d="M148.289 85V76.2727H149.295V79.4943H149.38C149.454 79.3807 149.556 79.2358 149.687 79.0597C149.82 78.8807 150.011 78.7216 150.258 78.5824C150.508 78.4403 150.846 78.3693 151.272 78.3693C151.823 78.3693 152.309 78.5071 152.73 78.7827C153.15 79.0582 153.478 79.4489 153.714 79.9545C153.95 80.4602 154.068 81.0568 154.068 81.7443C154.068 82.4375 153.95 83.0384 153.714 83.5469C153.478 84.0526 153.151 84.4446 152.734 84.723C152.316 84.9986 151.835 85.1364 151.289 85.1364C150.869 85.1364 150.532 85.0668 150.279 84.9276C150.026 84.7855 149.832 84.625 149.695 84.446C149.559 84.2642 149.454 84.1136 149.38 83.9943H149.261V85H148.289ZM149.278 81.7273C149.278 82.2216 149.35 82.6577 149.495 83.0355C149.64 83.4105 149.852 83.7045 150.13 83.9176C150.409 84.1278 150.749 84.233 151.153 84.233C151.573 84.233 151.924 84.1222 152.205 83.9006C152.49 83.6761 152.703 83.375 152.845 82.9972C152.99 82.6165 153.062 82.1932 153.062 81.7273C153.062 81.267 152.991 80.8523 152.849 80.483C152.71 80.1108 152.498 79.8168 152.214 79.6009C151.933 79.3821 151.579 79.2727 151.153 79.2727C150.744 79.2727 150.4 79.3764 150.122 79.5838C149.843 79.7884 149.633 80.0753 149.491 80.4446C149.349 80.8111 149.278 81.2386 149.278 81.7273Z" fill="white"/>
<path d="M159.731 82.3239V78.4545H160.737V85H159.731V83.892H159.663C159.509 84.2244 159.271 84.5071 158.947 84.7401C158.623 84.9702 158.214 85.0852 157.72 85.0852C157.311 85.0852 156.947 84.9957 156.629 84.8168C156.311 84.6349 156.061 84.3622 155.879 83.9986C155.697 83.6321 155.606 83.1705 155.606 82.6136V78.4545H156.612V82.5455C156.612 83.0227 156.745 83.4034 157.012 83.6875C157.282 83.9716 157.626 84.1136 158.044 84.1136C158.294 84.1136 158.548 84.0497 158.806 83.9219C159.068 83.794 159.286 83.598 159.463 83.3338C159.642 83.0696 159.731 82.733 159.731 82.3239Z" fill="white"/>
<path d="M162.391 85V84.233L166.107 79.4602V79.392H162.51V78.4545H167.403V79.2557L163.789 83.9943V84.0625H167.522V85H162.391Z" fill="white"/>
<path d="M168.883 85V84.233L172.599 79.4602V79.392H169.003V78.4545H173.895V79.2557L170.281 83.9943V84.0625H174.014V85H168.883Z" fill="white"/>
<path d="M178.12 85.1364C177.489 85.1364 176.945 84.9972 176.488 84.7188C176.033 84.4375 175.682 84.0455 175.435 83.5426C175.191 83.0369 175.069 82.4489 175.069 81.7784C175.069 81.108 175.191 80.517 175.435 80.0057C175.682 79.4915 176.026 79.0909 176.466 78.804C176.91 78.5142 177.427 78.3693 178.018 78.3693C178.358 78.3693 178.695 78.4261 179.028 78.5398C179.36 78.6534 179.662 78.8381 179.935 79.0938C180.208 79.3466 180.425 79.6818 180.587 80.0994C180.749 80.517 180.83 81.0312 180.83 81.642V82.0682H175.785V81.1989H179.807C179.807 80.8295 179.733 80.5 179.586 80.2102C179.441 79.9205 179.233 79.6918 178.964 79.5241C178.697 79.3565 178.381 79.2727 178.018 79.2727C177.617 79.2727 177.27 79.3722 176.978 79.571C176.688 79.767 176.465 80.0227 176.309 80.3381C176.153 80.6534 176.074 80.9915 176.074 81.3523V81.9318C176.074 82.4261 176.16 82.8452 176.33 83.1889C176.503 83.5298 176.743 83.7898 177.05 83.9688C177.357 84.1449 177.714 84.233 178.12 84.233C178.384 84.233 178.623 84.196 178.836 84.1222C179.052 84.0455 179.238 83.9318 179.394 83.7812C179.55 83.6278 179.671 83.4375 179.756 83.2102L180.728 83.483C180.626 83.8125 180.454 84.1023 180.212 84.3523C179.971 84.5994 179.672 84.7926 179.317 84.9318C178.962 85.0682 178.563 85.1364 178.12 85.1364Z" fill="white"/>
<path d="M186.996 79.9205L186.093 80.1761C186.036 80.0256 185.952 79.8793 185.841 79.7372C185.733 79.5923 185.586 79.473 185.398 79.3793C185.211 79.2855 184.971 79.2386 184.678 79.2386C184.278 79.2386 183.944 79.331 183.677 79.5156C183.412 79.6974 183.28 79.929 183.28 80.2102C183.28 80.4602 183.371 80.6577 183.553 80.8026C183.735 80.9474 184.019 81.0682 184.405 81.1648L185.377 81.4034C185.962 81.5455 186.398 81.7628 186.685 82.0554C186.972 82.3452 187.116 82.7188 187.116 83.1761C187.116 83.5511 187.008 83.8864 186.792 84.1818C186.579 84.4773 186.28 84.7102 185.897 84.8807C185.513 85.0511 185.067 85.1364 184.559 85.1364C183.891 85.1364 183.339 84.9915 182.901 84.7017C182.464 84.4119 182.187 83.9886 182.07 83.4318L183.025 83.1932C183.116 83.5455 183.287 83.8097 183.54 83.9858C183.796 84.1619 184.13 84.25 184.542 84.25C185.01 84.25 185.383 84.1506 185.658 83.9517C185.937 83.75 186.076 83.5085 186.076 83.2273C186.076 83 185.996 82.8097 185.837 82.6562C185.678 82.5 185.434 82.3835 185.104 82.3068L184.013 82.0511C183.414 81.9091 182.974 81.6889 182.692 81.3906C182.414 81.0895 182.275 80.7131 182.275 80.2614C182.275 79.892 182.378 79.5653 182.586 79.2812C182.796 78.9972 183.081 78.7741 183.442 78.6122C183.806 78.4503 184.218 78.3693 184.678 78.3693C185.326 78.3693 185.834 78.5114 186.204 78.7955C186.576 79.0795 186.84 79.4545 186.996 79.9205Z" fill="white"/>
<path d="M103 22C103 17.5817 106.582 14 111 14C115.418 14 119 17.5817 119 22C119 26.4183 115.418 30 111 30C106.582 30 103 26.4183 103 22Z" fill="white"/>
<path d="M111.485 17.7273V25H110.605V18.6506H110.562L108.787 19.8295V18.9347L110.605 17.7273H111.485Z" fill="black"/>
<path d="M72.7227 224.633V228.734C72.7227 229.411 72.7585 229.835 72.8301 230.004C72.9082 230.173 73.0547 230.323 73.2695 230.453C73.4909 230.577 73.7871 230.639 74.1582 230.639H74.5977V231H67.6738V230.639H68.1133C68.4974 230.639 68.8066 230.57 69.041 230.434C69.2103 230.342 69.3405 230.186 69.4316 229.965C69.5033 229.809 69.5391 229.398 69.5391 228.734V220.023C69.5391 219.346 69.5033 218.923 69.4316 218.754C69.36 218.585 69.2135 218.438 68.9922 218.314C68.7773 218.184 68.4844 218.119 68.1133 218.119H67.6738V217.758H74.5977V218.119H74.1582C73.7741 218.119 73.4648 218.188 73.2305 218.324C73.0612 218.415 72.9277 218.572 72.8301 218.793C72.7585 218.949 72.7227 219.359 72.7227 220.023V223.773H77.4004V220.023C77.4004 219.346 77.3646 218.923 77.293 218.754C77.2214 218.585 77.0749 218.438 76.8535 218.314C76.6322 218.184 76.3359 218.119 75.9648 218.119H75.5352V217.758H82.4492V218.119H82.0195C81.6289 218.119 81.3197 218.188 81.0918 218.324C80.9225 218.415 80.7891 218.572 80.6914 218.793C80.6198 218.949 80.584 219.359 80.584 220.023V228.734C80.584 229.411 80.6198 229.835 80.6914 230.004C80.763 230.173 80.9095 230.323 81.1309 230.453C81.3522 230.577 81.6484 230.639 82.0195 230.639H82.4492V231H75.5352V230.639H75.9648C76.3555 230.639 76.6647 230.57 76.8926 230.434C77.0618 230.342 77.1953 230.186 77.293 229.965C77.3646 229.809 77.4004 229.398 77.4004 228.734V224.633H72.7227Z" fill="#808080"/>
<path d="M91.1406 227.23H86.4629L85.9062 228.52C85.724 228.949 85.6328 229.304 85.6328 229.584C85.6328 229.955 85.7826 230.229 86.082 230.404C86.2578 230.508 86.6908 230.587 87.3809 230.639V231H82.9766V230.639C83.4518 230.567 83.8424 230.372 84.1484 230.053C84.4544 229.727 84.832 229.06 85.2812 228.051L90.0176 217.484H90.2031L94.9785 228.344C95.4342 229.372 95.8086 230.02 96.1016 230.287C96.3229 230.489 96.6354 230.606 97.0391 230.639V231H90.6328V230.639H90.8965C91.4108 230.639 91.7721 230.567 91.9805 230.424C92.1237 230.32 92.1953 230.17 92.1953 229.975C92.1953 229.857 92.1758 229.737 92.1367 229.613C92.1237 229.555 92.026 229.311 91.8438 228.881L91.1406 227.23ZM90.8086 226.508L88.8359 221.947L86.8047 226.508H90.8086Z" fill="#808080"/>
<path d="M106.17 223.979C107.426 224.271 108.309 224.626 108.816 225.043C109.546 225.635 109.91 226.404 109.91 227.348C109.91 228.344 109.51 229.167 108.709 229.818C107.726 230.606 106.297 231 104.422 231H97.6934V230.639C98.3053 230.639 98.7188 230.583 98.9336 230.473C99.1549 230.355 99.3079 230.206 99.3926 230.023C99.4837 229.841 99.5293 229.392 99.5293 228.676V220.082C99.5293 219.366 99.4837 218.917 99.3926 218.734C99.3079 218.546 99.1549 218.396 98.9336 218.285C98.7122 218.174 98.2988 218.119 97.6934 218.119V217.758H104.041C105.558 217.758 106.632 217.895 107.264 218.168C107.895 218.435 108.393 218.839 108.758 219.379C109.122 219.913 109.305 220.482 109.305 221.088C109.305 221.726 109.074 222.296 108.611 222.797C108.149 223.292 107.335 223.686 106.17 223.979ZM102.615 223.715C103.54 223.715 104.22 223.611 104.656 223.402C105.099 223.194 105.438 222.901 105.672 222.523C105.906 222.146 106.023 221.664 106.023 221.078C106.023 220.492 105.906 220.014 105.672 219.643C105.444 219.265 105.115 218.979 104.686 218.783C104.256 218.588 103.566 218.493 102.615 218.5V223.715ZM102.615 224.477V228.725L102.605 229.213C102.605 229.564 102.693 229.831 102.869 230.014C103.051 230.189 103.318 230.277 103.67 230.277C104.191 230.277 104.669 230.163 105.105 229.936C105.548 229.701 105.887 229.366 106.121 228.93C106.355 228.487 106.473 227.995 106.473 227.455C106.473 226.837 106.329 226.283 106.043 225.795C105.757 225.3 105.363 224.955 104.861 224.76C104.36 224.564 103.611 224.47 102.615 224.477Z" fill="#808080"/>
<path d="M117.938 230.639V231H111.014V230.639H111.453C111.837 230.639 112.146 230.57 112.381 230.434C112.55 230.342 112.68 230.186 112.771 229.965C112.843 229.809 112.879 229.398 112.879 228.734V220.023C112.879 219.346 112.843 218.923 112.771 218.754C112.7 218.585 112.553 218.438 112.332 218.314C112.117 218.184 111.824 218.119 111.453 218.119H111.014V217.758H117.938V218.119H117.498C117.114 218.119 116.805 218.188 116.57 218.324C116.401 218.415 116.268 218.572 116.17 218.793C116.098 218.949 116.062 219.359 116.062 220.023V228.734C116.062 229.411 116.098 229.835 116.17 230.004C116.248 230.173 116.395 230.323 116.609 230.453C116.831 230.577 117.127 230.639 117.498 230.639H117.938Z" fill="#808080"/>
<path d="M131.023 217.758V221.342H130.672C130.464 220.515 130.232 219.923 129.979 219.564C129.725 219.2 129.376 218.91 128.934 218.695C128.686 218.578 128.253 218.52 127.635 218.52H126.648V228.734C126.648 229.411 126.684 229.835 126.756 230.004C126.834 230.173 126.98 230.323 127.195 230.453C127.417 230.577 127.716 230.639 128.094 230.639H128.533V231H121.6V230.639H122.039C122.423 230.639 122.732 230.57 122.967 230.434C123.136 230.342 123.27 230.186 123.367 229.965C123.439 229.809 123.475 229.398 123.475 228.734V218.52H122.518C121.626 218.52 120.978 218.708 120.574 219.086C120.008 219.613 119.65 220.365 119.5 221.342H119.129V217.758H131.023Z" fill="#808080"/>
<path d="M200 100C200 155.228 155.228 200 100 200C44.7715 200 0 155.228 0 100C0 44.7715 44.7715 0 100 0C155.228 0 200 44.7715 200 100Z" fill="#808080"/>
<path d="M37.796 154L33.8187 139.455H35.6085L38.6483 151.301H38.7903L41.8869 139.455H43.8755L46.9721 151.301H47.1142L50.1539 139.455H51.9437L47.9664 154H46.1483L42.938 142.409H42.8244L39.6142 154H37.796Z" fill="white"/>
<path d="M56.1056 154.256C55.4144 154.256 54.787 154.125 54.2235 153.865C53.6601 153.6 53.2127 153.219 52.8812 152.722C52.5498 152.22 52.3841 151.614 52.3841 150.903C52.3841 150.278 52.5072 149.772 52.7534 149.384C52.9996 148.991 53.3287 148.683 53.7406 148.46C54.1525 148.238 54.6071 148.072 55.1042 147.963C55.6061 147.849 56.1104 147.759 56.617 147.693C57.2799 147.608 57.8173 147.544 58.2292 147.501C58.6459 147.454 58.9489 147.376 59.1383 147.267C59.3324 147.158 59.4295 146.969 59.4295 146.699V146.642C59.4295 145.941 59.2377 145.397 58.8542 145.009C58.4754 144.62 57.9002 144.426 57.1284 144.426C56.3282 144.426 55.7008 144.601 55.2463 144.952C54.7917 145.302 54.4721 145.676 54.2875 146.074L52.6966 145.506C52.9806 144.843 53.3594 144.327 53.8329 143.957C54.3111 143.583 54.832 143.323 55.3954 143.176C55.9636 143.025 56.5223 142.949 57.0716 142.949C57.4219 142.949 57.8244 142.991 58.2789 143.077C58.7382 143.157 59.1809 143.325 59.6071 143.581C60.0379 143.837 60.3954 144.223 60.6795 144.739C60.9636 145.255 61.1056 145.946 61.1056 146.812V154H59.4295V152.523H59.3443C59.2306 152.759 59.0413 153.013 58.7761 153.283C58.5109 153.553 58.1582 153.782 57.7179 153.972C57.2775 154.161 56.7401 154.256 56.1056 154.256ZM56.3613 152.75C57.0242 152.75 57.5829 152.62 58.0375 152.359C58.4967 152.099 58.8424 151.763 59.0744 151.351C59.3111 150.939 59.4295 150.506 59.4295 150.051V148.517C59.3585 148.602 59.2022 148.68 58.9608 148.751C58.724 148.818 58.4494 148.877 58.1369 148.929C57.8291 148.976 57.5285 149.019 57.2349 149.057C56.9461 149.09 56.7117 149.118 56.5318 149.142C56.0962 149.199 55.689 149.291 55.3102 149.419C54.9361 149.542 54.6331 149.729 54.4011 149.98C54.1738 150.226 54.0602 150.562 54.0602 150.989C54.0602 151.571 54.2756 152.011 54.7065 152.31C55.1421 152.603 55.6937 152.75 56.3613 152.75Z" fill="white"/>
<path d="M65.8411 147.438V154H64.1649V143.091H65.7843V144.795H65.9263C66.182 144.241 66.5703 143.796 67.0911 143.46C67.6119 143.119 68.2843 142.949 69.1081 142.949C69.8468 142.949 70.4931 143.1 71.0471 143.403C71.601 143.702 72.0319 144.156 72.3397 144.767C72.6474 145.373 72.8013 146.14 72.8013 147.068V154H71.1252V147.182C71.1252 146.325 70.9026 145.657 70.4576 145.179C70.0125 144.696 69.4017 144.455 68.6252 144.455C68.0901 144.455 67.6119 144.571 67.1905 144.803C66.7739 145.035 66.4448 145.373 66.2033 145.818C65.9618 146.263 65.8411 146.803 65.8411 147.438Z" fill="white"/>
<path d="M80.6085 143.091V144.511H74.9551V143.091H80.6085ZM76.6028 140.477H78.2789V150.875C78.2789 151.348 78.3476 151.704 78.4849 151.94C78.627 152.172 78.8069 152.329 79.0247 152.409C79.2472 152.485 79.4816 152.523 79.7278 152.523C79.9125 152.523 80.064 152.513 80.1824 152.494C80.3007 152.471 80.3954 152.452 80.4664 152.438L80.8074 153.943C80.6937 153.986 80.5351 154.028 80.3315 154.071C80.1279 154.118 79.8699 154.142 79.5574 154.142C79.0839 154.142 78.6199 154.04 78.1653 153.837C77.7155 153.633 77.3414 153.323 77.0431 152.906C76.7496 152.49 76.6028 151.964 76.6028 151.33V140.477Z" fill="white"/>
<path d="M93.4991 143.091V144.511H87.8457V143.091H93.4991ZM89.4934 140.477H91.1696V150.875C91.1696 151.348 91.2382 151.704 91.3755 151.94C91.5176 152.172 91.6975 152.329 91.9153 152.409C92.1378 152.485 92.3722 152.523 92.6184 152.523C92.8031 152.523 92.9546 152.513 93.073 152.494C93.1913 152.471 93.286 152.452 93.3571 152.438L93.698 153.943C93.5843 153.986 93.4257 154.028 93.2221 154.071C93.0185 154.118 92.7605 154.142 92.448 154.142C91.9745 154.142 91.5105 154.04 91.0559 153.837C90.6061 153.633 90.2321 153.323 89.9338 152.906C89.6402 152.49 89.4934 151.964 89.4934 151.33V140.477Z" fill="white"/>
<path d="M100.335 154.227C99.3502 154.227 98.4861 153.993 97.7427 153.524C97.0041 153.055 96.4264 152.4 96.0098 151.557C95.5978 150.714 95.3919 149.729 95.3919 148.602C95.3919 147.466 95.5978 146.474 96.0098 145.626C96.4264 144.779 97.0041 144.121 97.7427 143.652C98.4861 143.183 99.3502 142.949 100.335 142.949C101.32 142.949 102.182 143.183 102.92 143.652C103.664 144.121 104.241 144.779 104.653 145.626C105.07 146.474 105.278 147.466 105.278 148.602C105.278 149.729 105.07 150.714 104.653 151.557C104.241 152.4 103.664 153.055 102.92 153.524C102.182 153.993 101.32 154.227 100.335 154.227ZM100.335 152.722C101.083 152.722 101.699 152.53 102.182 152.146C102.665 151.763 103.022 151.259 103.254 150.634C103.486 150.009 103.602 149.331 103.602 148.602C103.602 147.873 103.486 147.194 103.254 146.564C103.022 145.934 102.665 145.425 102.182 145.037C101.699 144.649 101.083 144.455 100.335 144.455C99.5869 144.455 98.9714 144.649 98.4885 145.037C98.0055 145.425 97.648 145.934 97.416 146.564C97.184 147.194 97.068 147.873 97.068 148.602C97.068 149.331 97.184 150.009 97.416 150.634C97.648 151.259 98.0055 151.763 98.4885 152.146C98.9714 152.53 99.5869 152.722 100.335 152.722Z" fill="white"/>
<path d="M117.894 154.227C116.871 154.227 115.99 153.986 115.252 153.503C114.513 153.02 113.945 152.355 113.547 151.507C113.149 150.66 112.95 149.691 112.95 148.602C112.95 147.494 113.154 146.517 113.561 145.669C113.973 144.817 114.546 144.152 115.28 143.673C116.019 143.19 116.88 142.949 117.865 142.949C118.632 142.949 119.324 143.091 119.939 143.375C120.555 143.659 121.059 144.057 121.452 144.568C121.845 145.08 122.089 145.676 122.183 146.358H120.507C120.379 145.861 120.095 145.42 119.655 145.037C119.219 144.649 118.632 144.455 117.894 144.455C117.24 144.455 116.667 144.625 116.175 144.966C115.687 145.302 115.306 145.778 115.031 146.393C114.762 147.004 114.627 147.722 114.627 148.545C114.627 149.388 114.759 150.122 115.024 150.747C115.294 151.372 115.673 151.857 116.161 152.203C116.653 152.549 117.231 152.722 117.894 152.722C118.329 152.722 118.725 152.646 119.08 152.494C119.435 152.343 119.736 152.125 119.982 151.841C120.228 151.557 120.403 151.216 120.507 150.818H122.183C122.089 151.462 121.854 152.042 121.48 152.558C121.111 153.07 120.621 153.477 120.01 153.78C119.404 154.078 118.699 154.227 117.894 154.227Z" fill="white"/>
<path d="M126.31 147.438V154H124.634V139.455H126.31V144.795H126.452C126.708 144.232 127.091 143.785 127.602 143.453C128.119 143.117 128.805 142.949 129.662 142.949C130.405 142.949 131.057 143.098 131.615 143.396C132.174 143.69 132.607 144.142 132.915 144.753C133.227 145.359 133.384 146.131 133.384 147.068V154H131.708V147.182C131.708 146.315 131.483 145.645 131.033 145.172C130.588 144.694 129.97 144.455 129.179 144.455C128.63 144.455 128.137 144.571 127.702 144.803C127.271 145.035 126.93 145.373 126.679 145.818C126.433 146.263 126.31 146.803 126.31 147.438Z" fill="white"/>
<path d="M141.024 154.227C139.973 154.227 139.066 153.995 138.304 153.531C137.546 153.062 136.961 152.409 136.55 151.571C136.142 150.728 135.939 149.748 135.939 148.631C135.939 147.513 136.142 146.528 136.55 145.676C136.961 144.819 137.534 144.152 138.268 143.673C139.007 143.19 139.869 142.949 140.854 142.949C141.422 142.949 141.983 143.044 142.537 143.233C143.091 143.422 143.595 143.73 144.05 144.156C144.504 144.578 144.866 145.136 145.136 145.832C145.406 146.528 145.541 147.385 145.541 148.403V149.114H137.132V147.665H143.836C143.836 147.049 143.713 146.5 143.467 146.017C143.226 145.534 142.88 145.153 142.43 144.874C141.985 144.594 141.46 144.455 140.854 144.455C140.186 144.455 139.608 144.62 139.121 144.952C138.638 145.278 138.266 145.705 138.006 146.23C137.745 146.756 137.615 147.319 137.615 147.92V148.886C137.615 149.71 137.757 150.409 138.041 150.982C138.33 151.55 138.73 151.983 139.241 152.281C139.753 152.575 140.347 152.722 141.024 152.722C141.464 152.722 141.862 152.66 142.217 152.537C142.577 152.409 142.887 152.22 143.148 151.969C143.408 151.713 143.609 151.396 143.751 151.017L145.371 151.472C145.2 152.021 144.914 152.504 144.511 152.92C144.109 153.332 143.612 153.654 143.02 153.886C142.428 154.114 141.763 154.227 141.024 154.227Z" fill="white"/>
<path d="M152.523 154.227C151.5 154.227 150.619 153.986 149.881 153.503C149.142 153.02 148.574 152.355 148.176 151.507C147.778 150.66 147.579 149.691 147.579 148.602C147.579 147.494 147.783 146.517 148.19 145.669C148.602 144.817 149.175 144.152 149.909 143.673C150.648 143.19 151.509 142.949 152.494 142.949C153.261 142.949 153.952 143.091 154.568 143.375C155.184 143.659 155.688 144.057 156.081 144.568C156.474 145.08 156.718 145.676 156.812 146.358H155.136C155.008 145.861 154.724 145.42 154.284 145.037C153.848 144.649 153.261 144.455 152.523 144.455C151.869 144.455 151.296 144.625 150.804 144.966C150.316 145.302 149.935 145.778 149.66 146.393C149.39 147.004 149.256 147.722 149.256 148.545C149.256 149.388 149.388 150.122 149.653 150.747C149.923 151.372 150.302 151.857 150.79 152.203C151.282 152.549 151.86 152.722 152.523 152.722C152.958 152.722 153.354 152.646 153.709 152.494C154.064 152.343 154.364 152.125 154.611 151.841C154.857 151.557 155.032 151.216 155.136 150.818H156.812C156.718 151.462 156.483 152.042 156.109 152.558C155.74 153.07 155.25 153.477 154.639 153.78C154.033 154.078 153.327 154.227 152.523 154.227Z" fill="white"/>
<path d="M160.825 150.023L160.797 147.949H161.138L165.91 143.091H167.984L162.899 148.233H162.757L160.825 150.023ZM159.263 154V139.455H160.939V154H159.263ZM166.194 154L161.933 148.602L163.126 147.438L168.325 154H166.194Z" fill="white"/>
<path d="M51.3684 171.438V178H49.6923V167.091H51.3116V168.795H51.4537C51.7093 168.241 52.0976 167.796 52.6184 167.46C53.1393 167.119 53.8116 166.949 54.6355 166.949C55.3741 166.949 56.0204 167.1 56.5744 167.403C57.1284 167.702 57.5592 168.156 57.867 168.767C58.1748 169.373 58.3287 170.14 58.3287 171.068V178H56.6525V171.182C56.6525 170.325 56.43 169.657 55.9849 169.179C55.5398 168.696 54.929 168.455 54.1525 168.455C53.6175 168.455 53.1393 168.571 52.7179 168.803C52.3012 169.035 51.9721 169.373 51.7306 169.818C51.4892 170.263 51.3684 170.803 51.3684 171.438Z" fill="white"/>
<path d="M65.8233 178.227C64.8385 178.227 63.9744 177.993 63.231 177.524C62.4924 177.055 61.9147 176.4 61.498 175.557C61.0861 174.714 60.8801 173.729 60.8801 172.602C60.8801 171.466 61.0861 170.474 61.498 169.626C61.9147 168.779 62.4924 168.121 63.231 167.652C63.9744 167.183 64.8385 166.949 65.8233 166.949C66.8082 166.949 67.6699 167.183 68.4086 167.652C69.1519 168.121 69.7296 168.779 70.1415 169.626C70.5582 170.474 70.7665 171.466 70.7665 172.602C70.7665 173.729 70.5582 174.714 70.1415 175.557C69.7296 176.4 69.1519 177.055 68.4086 177.524C67.6699 177.993 66.8082 178.227 65.8233 178.227ZM65.8233 176.722C66.5714 176.722 67.187 176.53 67.6699 176.146C68.1529 175.763 68.5104 175.259 68.7424 174.634C68.9744 174.009 69.0904 173.331 69.0904 172.602C69.0904 171.873 68.9744 171.194 68.7424 170.564C68.5104 169.934 68.1529 169.425 67.6699 169.037C67.187 168.649 66.5714 168.455 65.8233 168.455C65.0752 168.455 64.4597 168.649 63.9767 169.037C63.4938 169.425 63.1363 169.934 62.9043 170.564C62.6723 171.194 62.5563 171.873 62.5563 172.602C62.5563 173.331 62.6723 174.009 62.9043 174.634C63.1363 175.259 63.4938 175.763 63.9767 176.146C64.4597 176.53 65.0752 176.722 65.8233 176.722Z" fill="white"/>
<path d="M78.0694 167.091V168.511H72.416V167.091H78.0694ZM74.0637 164.477H75.7399V174.875C75.7399 175.348 75.8085 175.704 75.9458 175.94C76.0879 176.172 76.2678 176.329 76.4856 176.409C76.7082 176.485 76.9425 176.523 77.1887 176.523C77.3734 176.523 77.5249 176.513 77.6433 176.494C77.7617 176.471 77.8564 176.452 77.9274 176.438L78.2683 177.943C78.1547 177.986 77.996 178.028 77.7924 178.071C77.5888 178.118 77.3308 178.142 77.0183 178.142C76.5448 178.142 76.0808 178.04 75.6262 177.837C75.1764 177.633 74.8024 177.323 74.5041 176.906C74.2105 176.49 74.0637 175.964 74.0637 175.33V164.477Z" fill="white"/>
<path d="M80.5907 178V167.091H82.2669V178H80.5907ZM81.443 165.273C81.1163 165.273 80.8346 165.161 80.5978 164.939C80.3658 164.716 80.2498 164.449 80.2498 164.136C80.2498 163.824 80.3658 163.556 80.5978 163.334C80.8346 163.111 81.1163 163 81.443 163C81.7697 163 82.0491 163.111 82.2811 163.334C82.5178 163.556 82.6362 163.824 82.6362 164.136C82.6362 164.449 82.5178 164.716 82.2811 164.939C82.0491 165.161 81.7697 165.273 81.443 165.273Z" fill="white"/>
<path d="M90.1948 167.091V168.511H84.3141V167.091H90.1948ZM86.0755 178V165.585C86.0755 164.96 86.2222 164.439 86.5158 164.023C86.8094 163.606 87.1905 163.294 87.6593 163.085C88.128 162.877 88.6228 162.773 89.1436 162.773C89.5556 162.773 89.8918 162.806 90.1522 162.872C90.4126 162.938 90.6067 163 90.7346 163.057L90.2516 164.506C90.1664 164.477 90.048 164.442 89.8965 164.399C89.7497 164.357 89.5556 164.335 89.3141 164.335C88.7601 164.335 88.36 164.475 88.1138 164.754C87.8723 165.034 87.7516 165.443 87.7516 165.983V178H86.0755Z" fill="white"/>
<path d="M92.5439 178V167.091H94.22V178H92.5439ZM93.3961 165.273C93.0694 165.273 92.7877 165.161 92.551 164.939C92.3189 164.716 92.2029 164.449 92.2029 164.136C92.2029 163.824 92.3189 163.556 92.551 163.334C92.7877 163.111 93.0694 163 93.3961 163C93.7228 163 94.0022 163.111 94.2342 163.334C94.4709 163.556 94.5893 163.824 94.5893 164.136C94.5893 164.449 94.4709 164.716 94.2342 164.939C94.0022 165.161 93.7228 165.273 93.3961 165.273Z" fill="white"/>
<path d="M101.722 178.227C100.699 178.227 99.8184 177.986 99.0797 177.503C98.3411 177.02 97.7729 176.355 97.3752 175.507C96.9774 174.66 96.7786 173.691 96.7786 172.602C96.7786 171.494 96.9822 170.517 97.3894 169.669C97.8013 168.817 98.3742 168.152 99.1081 167.673C99.8468 167.19 100.709 166.949 101.693 166.949C102.46 166.949 103.152 167.091 103.767 167.375C104.383 167.659 104.887 168.057 105.28 168.568C105.673 169.08 105.917 169.676 106.012 170.358H104.335C104.208 169.861 103.923 169.42 103.483 169.037C103.048 168.649 102.46 168.455 101.722 168.455C101.068 168.455 100.495 168.625 100.003 168.966C99.5153 169.302 99.1342 169.778 98.8596 170.393C98.5897 171.004 98.4547 171.722 98.4547 172.545C98.4547 173.388 98.5873 174.122 98.8524 174.747C99.1223 175.372 99.5011 175.857 99.9888 176.203C100.481 176.549 101.059 176.722 101.722 176.722C102.157 176.722 102.553 176.646 102.908 176.494C103.263 176.343 103.564 176.125 103.81 175.841C104.056 175.557 104.231 175.216 104.335 174.818H106.012C105.917 175.462 105.682 176.042 105.308 176.558C104.939 177.07 104.449 177.477 103.838 177.78C103.232 178.078 102.527 178.227 101.722 178.227Z" fill="white"/>
<path d="M111.672 178.256C110.981 178.256 110.353 178.125 109.79 177.865C109.227 177.6 108.779 177.219 108.448 176.722C108.116 176.22 107.95 175.614 107.95 174.903C107.95 174.278 108.074 173.772 108.32 173.384C108.566 172.991 108.895 172.683 109.307 172.46C109.719 172.238 110.173 172.072 110.671 171.963C111.173 171.849 111.677 171.759 112.183 171.693C112.846 171.608 113.384 171.544 113.796 171.501C114.212 171.454 114.515 171.376 114.705 171.267C114.899 171.158 114.996 170.969 114.996 170.699V170.642C114.996 169.941 114.804 169.397 114.421 169.009C114.042 168.62 113.467 168.426 112.695 168.426C111.895 168.426 111.267 168.601 110.813 168.952C110.358 169.302 110.039 169.676 109.854 170.074L108.263 169.506C108.547 168.843 108.926 168.327 109.399 167.957C109.878 167.583 110.398 167.323 110.962 167.176C111.53 167.025 112.089 166.949 112.638 166.949C112.988 166.949 113.391 166.991 113.845 167.077C114.305 167.157 114.747 167.325 115.173 167.581C115.604 167.837 115.962 168.223 116.246 168.739C116.53 169.255 116.672 169.946 116.672 170.812V178H114.996V176.523H114.911C114.797 176.759 114.608 177.013 114.343 177.283C114.077 177.553 113.725 177.782 113.284 177.972C112.844 178.161 112.307 178.256 111.672 178.256ZM111.928 176.75C112.591 176.75 113.149 176.62 113.604 176.359C114.063 176.099 114.409 175.763 114.641 175.351C114.878 174.939 114.996 174.506 114.996 174.051V172.517C114.925 172.602 114.769 172.68 114.527 172.751C114.29 172.818 114.016 172.877 113.703 172.929C113.396 172.976 113.095 173.019 112.801 173.057C112.512 173.09 112.278 173.118 112.098 173.142C111.663 173.199 111.255 173.291 110.877 173.419C110.503 173.542 110.2 173.729 109.968 173.98C109.74 174.226 109.627 174.562 109.627 174.989C109.627 175.571 109.842 176.011 110.273 176.31C110.709 176.603 111.26 176.75 111.928 176.75Z" fill="white"/>
<path d="M124.476 167.091V168.511H118.822V167.091H124.476ZM120.47 164.477H122.146V174.875C122.146 175.348 122.215 175.704 122.352 175.94C122.494 176.172 122.674 176.329 122.892 176.409C123.114 176.485 123.349 176.523 123.595 176.523C123.78 176.523 123.931 176.513 124.05 176.494C124.168 176.471 124.263 176.452 124.334 176.438L124.675 177.943C124.561 177.986 124.402 178.028 124.199 178.071C123.995 178.118 123.737 178.142 123.425 178.142C122.951 178.142 122.487 178.04 122.032 177.837C121.583 177.633 121.209 177.323 120.91 176.906C120.617 176.49 120.47 175.964 120.47 175.33V164.477Z" fill="white"/>
<path d="M126.997 178V167.091H128.673V178H126.997ZM127.849 165.273C127.523 165.273 127.241 165.161 127.004 164.939C126.772 164.716 126.656 164.449 126.656 164.136C126.656 163.824 126.772 163.556 127.004 163.334C127.241 163.111 127.523 163 127.849 163C128.176 163 128.455 163.111 128.687 163.334C128.924 163.556 129.042 163.824 129.042 164.136C129.042 164.449 128.924 164.716 128.687 164.939C128.455 165.161 128.176 165.273 127.849 165.273Z" fill="white"/>
<path d="M136.175 178.227C135.19 178.227 134.326 177.993 133.583 177.524C132.844 177.055 132.266 176.4 131.85 175.557C131.438 174.714 131.232 173.729 131.232 172.602C131.232 171.466 131.438 170.474 131.85 169.626C132.266 168.779 132.844 168.121 133.583 167.652C134.326 167.183 135.19 166.949 136.175 166.949C137.16 166.949 138.021 167.183 138.76 167.652C139.503 168.121 140.081 168.779 140.493 169.626C140.91 170.474 141.118 171.466 141.118 172.602C141.118 173.729 140.91 174.714 140.493 175.557C140.081 176.4 139.503 177.055 138.76 177.524C138.021 177.993 137.16 178.227 136.175 178.227ZM136.175 176.722C136.923 176.722 137.539 176.53 138.021 176.146C138.504 175.763 138.862 175.259 139.094 174.634C139.326 174.009 139.442 173.331 139.442 172.602C139.442 171.873 139.326 171.194 139.094 170.564C138.862 169.934 138.504 169.425 138.021 169.037C137.539 168.649 136.923 168.455 136.175 168.455C135.427 168.455 134.811 168.649 134.328 169.037C133.845 169.425 133.488 169.934 133.256 170.564C133.024 171.194 132.908 171.873 132.908 172.602C132.908 173.331 133.024 174.009 133.256 174.634C133.488 175.259 133.845 175.763 134.328 176.146C134.811 176.53 135.427 176.722 136.175 176.722Z" fill="white"/>
<path d="M145.353 171.438V178H143.677V167.091H145.296V168.795H145.438C145.694 168.241 146.082 167.796 146.603 167.46C147.124 167.119 147.796 166.949 148.62 166.949C149.358 166.949 150.005 167.1 150.559 167.403C151.113 167.702 151.544 168.156 151.851 168.767C152.159 169.373 152.313 170.14 152.313 171.068V178H150.637V171.182C150.637 170.325 150.414 169.657 149.969 169.179C149.524 168.696 148.913 168.455 148.137 168.455C147.602 168.455 147.124 168.571 146.702 168.803C146.286 169.035 145.957 169.373 145.715 169.818C145.474 170.263 145.353 170.803 145.353 171.438Z" fill="white"/>
<path d="M89 26.5C89 20.701 93.701 16 99.5 16C105.299 16 110 20.701 110 26.5C110 32.299 105.299 37 99.5 37C93.701 37 89 32.299 89 26.5Z" fill="white"/>
<path d="M96.5431 31V30.169L99.6639 26.7528C100.03 26.3527 100.332 26.005 100.569 25.7095C100.806 25.411 100.981 25.1309 101.095 24.8693C101.212 24.6046 101.27 24.3277 101.27 24.0384C101.27 23.706 101.19 23.4182 101.03 23.1751C100.873 22.9319 100.658 22.7442 100.384 22.6119C100.11 22.4795 99.8024 22.4134 99.4608 22.4134C99.0976 22.4134 98.7806 22.4888 98.5098 22.6396C98.242 22.7873 98.0343 22.995 97.8865 23.2628C97.7419 23.5305 97.6696 23.8445 97.6696 24.2045H96.5801C96.5801 23.6506 96.7078 23.1643 96.9632 22.7457C97.2187 22.3272 97.5665 22.0009 98.0066 21.767C98.4498 21.5331 98.9468 21.4162 99.4977 21.4162C100.052 21.4162 100.543 21.5331 100.97 21.767C101.398 22.0009 101.734 22.3164 101.977 22.7134C102.22 23.1104 102.341 23.5521 102.341 24.0384C102.341 24.3861 102.278 24.7262 102.152 25.0586C102.029 25.3879 101.814 25.7557 101.506 26.1619C101.201 26.5651 100.778 27.0575 100.236 27.6392L98.1127 29.9105V29.9844H102.508V31H96.5431Z" fill="black"/>
<path d="M91.2917 119.958V118.375H79.4167C77.5278 118.372 75.717 117.621 74.3813 116.285C73.0457 114.95 72.2942 113.139 72.2917 111.25V110.04C72.2855 108.534 72.7021 107.056 73.4942 105.775C74.2864 104.493 75.4222 103.46 76.7725 102.792C77.3765 102.49 77.8931 102.039 78.2729 101.48C78.6526 100.922 78.8829 100.276 78.9417 99.603L80.354 84.0547C80.6205 81.1208 81.541 78.284 83.0479 75.7527C84.5547 73.2213 86.6095 71.0597 89.0614 69.4267C91.5133 67.7938 94.2999 66.7309 97.2165 66.3163C100.133 65.9016 103.105 66.1457 105.915 67.0307C105.047 68.3809 104.37 69.8453 103.904 71.3817C102.631 71.044 101.318 70.8737 100 70.875C96.2599 70.8575 92.6504 72.2487 89.8895 74.7719C87.1287 77.295 85.4191 80.7651 85.1008 84.4917L83.6917 100.034C83.5606 101.513 83.0518 102.934 82.214 104.161C81.3762 105.387 80.2374 106.378 78.9068 107.038C78.3459 107.315 77.8737 107.743 77.5439 108.274C77.2142 108.805 77.0402 109.418 77.0417 110.044V111.253C77.0433 111.882 77.2942 112.485 77.7393 112.93C78.1845 113.374 78.7876 113.624 79.4167 113.625H120.583C121.213 113.624 121.817 113.374 122.262 112.928C122.707 112.483 122.957 111.88 122.958 111.25V110.04C122.961 109.416 122.788 108.804 122.46 108.274C122.132 107.743 121.662 107.315 121.103 107.038C119.77 106.379 118.63 105.389 117.79 104.163C116.951 102.936 116.44 101.514 116.308 100.034L115.675 93.1303C117.245 93.5905 118.872 93.8261 120.507 93.8302L121.033 99.5998C121.097 100.271 121.33 100.914 121.71 101.471C122.089 102.027 122.604 102.478 123.205 102.782C124.557 103.451 125.694 104.484 126.487 105.766C127.281 107.048 127.7 108.526 127.696 110.034V111.244C127.694 113.133 126.943 114.944 125.607 116.28C124.271 117.616 122.46 118.367 120.571 118.369H108.708V119.958C108.708 122.268 107.791 124.483 106.158 126.116C104.525 127.749 102.31 128.667 100 128.667C97.6904 128.667 95.4754 127.749 93.8423 126.116C92.2091 124.483 91.2917 122.268 91.2917 119.958ZM96.0417 119.958C96.0417 121.008 96.4587 122.015 97.201 122.757C97.9434 123.5 98.9502 123.917 100 123.917C101.05 123.917 102.057 123.5 102.799 122.757C103.541 122.015 103.958 121.008 103.958 119.958V118.375H96.0417V119.958ZM119.94 87.481C118.215 87.3815 116.537 86.8782 115.042 86.0117L114.902 84.4917C114.564 80.5721 112.688 76.9459 109.684 74.4058C109.986 72.7851 110.646 71.2521 111.615 69.9187C113.88 71.569 115.767 73.6836 117.15 76.1213C118.533 78.559 119.379 81.2637 119.633 84.0547L119.95 87.4778L119.94 87.481Z" fill="white"/>
<path d="M120.583 87.5C118.391 87.5 116.248 86.85 114.426 85.6321C112.603 84.4143 111.183 82.6833 110.344 80.6581C109.505 78.6329 109.285 76.4044 109.713 74.2544C110.141 72.1045 111.196 70.1296 112.746 68.5796C114.296 67.0295 116.271 65.974 118.421 65.5463C120.571 65.1186 122.8 65.3381 124.825 66.177C126.85 67.0159 128.581 68.4365 129.799 70.2591C131.017 72.0817 131.667 74.2246 131.667 76.4167C131.667 79.3562 130.499 82.1752 128.42 84.2538C126.342 86.3323 123.523 87.5 120.583 87.5Z" fill="#5E5E5E"/>
</svg>
