<svg width="200" height="231" viewBox="0 0 200 231" fill="none" xmlns="http://www.w3.org/2000/svg">
<path d="M72.7227 224.633V228.734C72.7227 229.411 72.7585 229.835 72.8301 230.004C72.9082 230.173 73.0547 230.323 73.2695 230.453C73.4909 230.577 73.7871 230.639 74.1582 230.639H74.5977V231H67.6738V230.639H68.1133C68.4974 230.639 68.8066 230.57 69.041 230.434C69.2103 230.342 69.3405 230.186 69.4316 229.965C69.5033 229.809 69.5391 229.398 69.5391 228.734V220.023C69.5391 219.346 69.5033 218.923 69.4316 218.754C69.36 218.585 69.2135 218.438 68.9922 218.314C68.7773 218.184 68.4844 218.119 68.1133 218.119H67.6738V217.758H74.5977V218.119H74.1582C73.7741 218.119 73.4648 218.188 73.2305 218.324C73.0612 218.415 72.9277 218.572 72.8301 218.793C72.7585 218.949 72.7227 219.359 72.7227 220.023V223.773H77.4004V220.023C77.4004 219.346 77.3646 218.923 77.293 218.754C77.2214 218.585 77.0749 218.438 76.8535 218.314C76.6322 218.184 76.3359 218.119 75.9648 218.119H75.5352V217.758H82.4492V218.119H82.0195C81.6289 218.119 81.3197 218.188 81.0918 218.324C80.9225 218.415 80.7891 218.572 80.6914 218.793C80.6198 218.949 80.584 219.359 80.584 220.023V228.734C80.584 229.411 80.6198 229.835 80.6914 230.004C80.763 230.173 80.9095 230.323 81.1309 230.453C81.3522 230.577 81.6484 230.639 82.0195 230.639H82.4492V231H75.5352V230.639H75.9648C76.3555 230.639 76.6647 230.57 76.8926 230.434C77.0618 230.342 77.1953 230.186 77.293 229.965C77.3646 229.809 77.4004 229.398 77.4004 228.734V224.633H72.7227Z" fill="#808080"/>
<path d="M91.1406 227.23H86.4629L85.9062 228.52C85.724 228.949 85.6328 229.304 85.6328 229.584C85.6328 229.955 85.7826 230.229 86.082 230.404C86.2578 230.508 86.6908 230.587 87.3809 230.639V231H82.9766V230.639C83.4518 230.567 83.8424 230.372 84.1484 230.053C84.4544 229.727 84.832 229.06 85.2812 228.051L90.0176 217.484H90.2031L94.9785 228.344C95.4342 229.372 95.8086 230.02 96.1016 230.287C96.3229 230.489 96.6354 230.606 97.0391 230.639V231H90.6328V230.639H90.8965C91.4108 230.639 91.7721 230.567 91.9805 230.424C92.1237 230.32 92.1953 230.17 92.1953 229.975C92.1953 229.857 92.1758 229.737 92.1367 229.613C92.1237 229.555 92.026 229.311 91.8438 228.881L91.1406 227.23ZM90.8086 226.508L88.8359 221.947L86.8047 226.508H90.8086Z" fill="#808080"/>
<path d="M106.17 223.979C107.426 224.271 108.309 224.626 108.816 225.043C109.546 225.635 109.91 226.404 109.91 227.348C109.91 228.344 109.51 229.167 108.709 229.818C107.726 230.606 106.297 231 104.422 231H97.6934V230.639C98.3053 230.639 98.7188 230.583 98.9336 230.473C99.1549 230.355 99.3079 230.206 99.3926 230.023C99.4837 229.841 99.5293 229.392 99.5293 228.676V220.082C99.5293 219.366 99.4837 218.917 99.3926 218.734C99.3079 218.546 99.1549 218.396 98.9336 218.285C98.7122 218.174 98.2988 218.119 97.6934 218.119V217.758H104.041C105.558 217.758 106.632 217.895 107.264 218.168C107.895 218.435 108.393 218.839 108.758 219.379C109.122 219.913 109.305 220.482 109.305 221.088C109.305 221.726 109.074 222.296 108.611 222.797C108.149 223.292 107.335 223.686 106.17 223.979ZM102.615 223.715C103.54 223.715 104.22 223.611 104.656 223.402C105.099 223.194 105.438 222.901 105.672 222.523C105.906 222.146 106.023 221.664 106.023 221.078C106.023 220.492 105.906 220.014 105.672 219.643C105.444 219.265 105.115 218.979 104.686 218.783C104.256 218.588 103.566 218.493 102.615 218.5V223.715ZM102.615 224.477V228.725L102.605 229.213C102.605 229.564 102.693 229.831 102.869 230.014C103.051 230.189 103.318 230.277 103.67 230.277C104.191 230.277 104.669 230.163 105.105 229.936C105.548 229.701 105.887 229.366 106.121 228.93C106.355 228.487 106.473 227.995 106.473 227.455C106.473 226.837 106.329 226.283 106.043 225.795C105.757 225.3 105.363 224.955 104.861 224.76C104.36 224.564 103.611 224.47 102.615 224.477Z" fill="#808080"/>
<path d="M117.938 230.639V231H111.014V230.639H111.453C111.837 230.639 112.146 230.57 112.381 230.434C112.55 230.342 112.68 230.186 112.771 229.965C112.843 229.809 112.879 229.398 112.879 228.734V220.023C112.879 219.346 112.843 218.923 112.771 218.754C112.7 218.585 112.553 218.438 112.332 218.314C112.117 218.184 111.824 218.119 111.453 218.119H111.014V217.758H117.938V218.119H117.498C117.114 218.119 116.805 218.188 116.57 218.324C116.401 218.415 116.268 218.572 116.17 218.793C116.098 218.949 116.062 219.359 116.062 220.023V228.734C116.062 229.411 116.098 229.835 116.17 230.004C116.248 230.173 116.395 230.323 116.609 230.453C116.831 230.577 117.127 230.639 117.498 230.639H117.938Z" fill="#808080"/>
<path d="M131.023 217.758V221.342H130.672C130.464 220.515 130.232 219.923 129.979 219.564C129.725 219.2 129.376 218.91 128.934 218.695C128.686 218.578 128.253 218.52 127.635 218.52H126.648V228.734C126.648 229.411 126.684 229.835 126.756 230.004C126.834 230.173 126.98 230.323 127.195 230.453C127.417 230.577 127.716 230.639 128.094 230.639H128.533V231H121.6V230.639H122.039C122.423 230.639 122.732 230.57 122.967 230.434C123.136 230.342 123.27 230.186 123.367 229.965C123.439 229.809 123.475 229.398 123.475 228.734V218.52H122.518C121.626 218.52 120.978 218.708 120.574 219.086C120.008 219.613 119.65 220.365 119.5 221.342H119.129V217.758H131.023Z" fill="#808080"/>
<path d="M200 100C200 155.228 155.228 200 100 200C44.7715 200 0 155.228 0 100C0 44.7715 44.7715 0 100 0C155.228 0 200 44.7715 200 100Z" fill="#808080"/>
<path fill-rule="evenodd" clip-rule="evenodd" d="M147.364 36.1224L157.493 38.886C158.414 39.1372 159.154 39.7492 159.591 40.5274C160.036 41.3127 160.183 42.2654 159.937 43.1982L153.834 66.3891C153.588 67.3283 152.987 68.0814 152.224 68.5265C151.452 68.9807 150.517 69.1289 149.601 68.8789L139.471 66.1153C138.549 65.8641 137.809 65.2528 137.373 64.4746C136.927 63.69 136.781 62.7378 137.027 61.8031L143.13 38.6077C143.377 37.6691 143.978 36.9154 144.742 36.4703C145.512 36.0174 146.442 35.8705 147.364 36.1224ZM160.868 49.3213C160.654 48.9579 160.771 48.4864 161.128 48.2687C161.485 48.0516 161.947 48.1701 162.161 48.5334L163.893 51.4735C164.107 51.8368 163.99 52.3084 163.633 52.5255L161.47 53.6438L162.783 55.519C163.024 55.8643 162.945 56.3436 162.605 56.5897C162.572 56.6135 162.537 56.6348 162.502 56.6522L160.335 57.7492L161.648 60.0387C161.856 60.4059 161.733 60.8755 161.372 61.0881L158.398 62.8886C158.041 63.1044 157.58 62.9846 157.368 62.6212C157.156 62.2573 157.273 61.787 157.63 61.5719L159.968 60.1546L158.602 57.7673C158.418 57.3872 158.571 56.9266 158.944 56.7391L161.041 55.6769L159.742 53.819C159.717 53.7849 159.694 53.7475 159.674 53.7082C159.487 53.3294 159.636 52.8682 160.008 52.6769L162.183 51.5547L160.868 49.3213ZM138.584 42.1005C138.947 41.8944 139.406 42.0277 139.608 42.3981C139.81 42.7685 139.679 43.2356 139.316 43.4411L137.08 44.7056L138.415 46.7883C138.641 47.1433 138.542 47.6187 138.193 47.8493C138.154 47.8751 138.113 47.897 138.071 47.915L136.045 48.8562L137.342 50.8467C137.572 51.2004 137.476 51.6771 137.129 51.9109L134.779 53.2818L136.107 55.6975C136.311 56.0679 136.182 56.5362 135.818 56.7443C135.454 56.9517 134.995 56.8197 134.791 56.4492L133.1 53.3739C132.893 53.0048 133.018 52.5351 133.38 52.3245L135.638 51.0103L134.299 48.956C134.279 48.9225 134.26 48.8871 134.244 48.8504C134.071 48.4658 134.237 48.0103 134.616 47.8345L136.673 46.8785L135.348 44.8081C135.146 44.4376 135.277 43.9706 135.64 43.7651L138.584 42.1005ZM145.499 63.8381C146.254 64.0443 146.709 64.8321 146.504 65.6103C146.301 66.3807 145.528 66.8433 144.763 66.6346C144.293 66.507 143.94 66.154 143.789 65.7192C143.697 65.4531 143.68 65.1568 143.757 64.8611C143.959 64.0926 144.733 63.6288 145.499 63.8381ZM138.202 60.7061L153.355 64.8405L159.028 43.28L143.876 39.1463L138.202 60.7061Z" fill="white"/>
<path d="M109.211 87.4545V78.4545H110.183V79.4943H110.302C110.376 79.3807 110.479 79.2358 110.609 79.0597C110.743 78.8807 110.933 78.7216 111.18 78.5824C111.43 78.4403 111.768 78.3693 112.194 78.3693C112.746 78.3693 113.231 78.5071 113.652 78.7827C114.072 79.0582 114.4 79.4489 114.636 79.9545C114.872 80.4602 114.99 81.0568 114.99 81.7443C114.99 82.4375 114.872 83.0384 114.636 83.5469C114.4 84.0526 114.074 84.4446 113.656 84.723C113.238 84.9986 112.757 85.1364 112.211 85.1364C111.791 85.1364 111.454 85.0668 111.202 84.9276C110.949 84.7855 110.754 84.625 110.618 84.446C110.481 84.2642 110.376 84.1136 110.302 83.9943H110.217V87.4545H109.211ZM110.2 81.7273C110.2 82.2216 110.273 82.6577 110.417 83.0355C110.562 83.4105 110.774 83.7045 111.052 83.9176C111.331 84.1278 111.672 84.233 112.075 84.233C112.496 84.233 112.846 84.1222 113.128 83.9006C113.412 83.6761 113.625 83.375 113.767 82.9972C113.912 82.6165 113.984 82.1932 113.984 81.7273C113.984 81.267 113.913 80.8523 113.771 80.483C113.632 80.1108 113.42 79.8168 113.136 79.6009C112.855 79.3821 112.501 79.2727 112.075 79.2727C111.666 79.2727 111.322 79.3764 111.044 79.5838C110.765 79.7884 110.555 80.0753 110.413 80.4446C110.271 80.8111 110.2 81.2386 110.2 81.7273Z" fill="white"/>
<path d="M117.53 81.0625V85H116.524V76.2727H117.53V79.4773H117.615C117.768 79.1392 117.998 78.8707 118.305 78.6719C118.615 78.4702 119.027 78.3693 119.541 78.3693C119.987 78.3693 120.378 78.4588 120.713 78.6378C121.048 78.8139 121.308 79.0852 121.493 79.4517C121.68 79.8153 121.774 80.2784 121.774 80.8409V85H120.768V80.9091C120.768 80.3892 120.633 79.9872 120.363 79.7031C120.096 79.4162 119.726 79.2727 119.251 79.2727C118.922 79.2727 118.626 79.3423 118.365 79.4815C118.106 79.6207 117.902 79.8239 117.751 80.0909C117.604 80.358 117.53 80.6818 117.53 81.0625Z" fill="white"/>
<path d="M126.273 85.1364C125.682 85.1364 125.164 84.9957 124.718 84.7145C124.274 84.4332 123.928 84.0398 123.678 83.5341C123.431 83.0284 123.307 82.4375 123.307 81.7614C123.307 81.0795 123.431 80.4844 123.678 79.9759C123.928 79.4673 124.274 79.0724 124.718 78.7912C125.164 78.5099 125.682 78.3693 126.273 78.3693C126.864 78.3693 127.381 78.5099 127.824 78.7912C128.27 79.0724 128.617 79.4673 128.864 79.9759C129.114 80.4844 129.239 81.0795 129.239 81.7614C129.239 82.4375 129.114 83.0284 128.864 83.5341C128.617 84.0398 128.27 84.4332 127.824 84.7145C127.381 84.9957 126.864 85.1364 126.273 85.1364ZM126.273 84.233C126.722 84.233 127.091 84.1179 127.381 83.8878C127.671 83.6577 127.885 83.3551 128.024 82.9801C128.164 82.6051 128.233 82.1989 128.233 81.7614C128.233 81.3239 128.164 80.9162 128.024 80.5384C127.885 80.1605 127.671 79.8551 127.381 79.6222C127.091 79.3892 126.722 79.2727 126.273 79.2727C125.824 79.2727 125.455 79.3892 125.165 79.6222C124.875 79.8551 124.661 80.1605 124.521 80.5384C124.382 80.9162 124.313 81.3239 124.313 81.7614C124.313 82.1989 124.382 82.6051 124.521 82.9801C124.661 83.3551 124.875 83.6577 125.165 83.8878C125.455 84.1179 125.824 84.233 126.273 84.233Z" fill="white"/>
<path d="M131.78 81.0625V85H130.774V78.4545H131.746V79.4773H131.831C131.984 79.1449 132.217 78.8778 132.53 78.6761C132.842 78.4716 133.246 78.3693 133.74 78.3693C134.183 78.3693 134.571 78.4602 134.903 78.642C135.236 78.821 135.494 79.0938 135.679 79.4602C135.863 79.8239 135.956 80.2841 135.956 80.8409V85H134.95V80.9091C134.95 80.3949 134.817 79.9943 134.55 79.7074C134.282 79.4176 133.916 79.2727 133.45 79.2727C133.129 79.2727 132.842 79.3423 132.589 79.4815C132.339 79.6207 132.142 79.8239 131.997 80.0909C131.852 80.358 131.78 80.6818 131.78 81.0625Z" fill="white"/>
<path d="M140.538 85.1364C139.907 85.1364 139.363 84.9972 138.906 84.7188C138.451 84.4375 138.1 84.0455 137.853 83.5426C137.609 83.0369 137.487 82.4489 137.487 81.7784C137.487 81.108 137.609 80.517 137.853 80.0057C138.1 79.4915 138.444 79.0909 138.884 78.804C139.328 78.5142 139.845 78.3693 140.436 78.3693C140.776 78.3693 141.113 78.4261 141.445 78.5398C141.778 78.6534 142.08 78.8381 142.353 79.0938C142.626 79.3466 142.843 79.6818 143.005 80.0994C143.167 80.517 143.248 81.0312 143.248 81.642V82.0682H138.203V81.1989H142.225C142.225 80.8295 142.151 80.5 142.004 80.2102C141.859 79.9205 141.651 79.6918 141.382 79.5241C141.115 79.3565 140.799 79.2727 140.436 79.2727C140.035 79.2727 139.688 79.3722 139.396 79.571C139.106 79.767 138.883 80.0227 138.727 80.3381C138.57 80.6534 138.492 80.9915 138.492 81.3523V81.9318C138.492 82.4261 138.578 82.8452 138.748 83.1889C138.921 83.5298 139.161 83.7898 139.468 83.9688C139.775 84.1449 140.132 84.233 140.538 84.233C140.802 84.233 141.041 84.196 141.254 84.1222C141.47 84.0455 141.656 83.9318 141.812 83.7812C141.968 83.6278 142.089 83.4375 142.174 83.2102L143.146 83.483C143.043 83.8125 142.872 84.1023 142.63 84.3523C142.389 84.5994 142.09 84.7926 141.735 84.9318C141.38 85.0682 140.981 85.1364 140.538 85.1364Z" fill="white"/>
<path d="M148.289 85V76.2727H149.295V79.4943H149.38C149.454 79.3807 149.556 79.2358 149.687 79.0597C149.82 78.8807 150.011 78.7216 150.258 78.5824C150.508 78.4403 150.846 78.3693 151.272 78.3693C151.823 78.3693 152.309 78.5071 152.73 78.7827C153.15 79.0582 153.478 79.4489 153.714 79.9545C153.95 80.4602 154.068 81.0568 154.068 81.7443C154.068 82.4375 153.95 83.0384 153.714 83.5469C153.478 84.0526 153.151 84.4446 152.734 84.723C152.316 84.9986 151.835 85.1364 151.289 85.1364C150.869 85.1364 150.532 85.0668 150.279 84.9276C150.026 84.7855 149.832 84.625 149.695 84.446C149.559 84.2642 149.454 84.1136 149.38 83.9943H149.261V85H148.289ZM149.278 81.7273C149.278 82.2216 149.35 82.6577 149.495 83.0355C149.64 83.4105 149.852 83.7045 150.13 83.9176C150.409 84.1278 150.749 84.233 151.153 84.233C151.573 84.233 151.924 84.1222 152.205 83.9006C152.49 83.6761 152.703 83.375 152.845 82.9972C152.99 82.6165 153.062 82.1932 153.062 81.7273C153.062 81.267 152.991 80.8523 152.849 80.483C152.71 80.1108 152.498 79.8168 152.214 79.6009C151.933 79.3821 151.579 79.2727 151.153 79.2727C150.744 79.2727 150.4 79.3764 150.122 79.5838C149.843 79.7884 149.633 80.0753 149.491 80.4446C149.349 80.8111 149.278 81.2386 149.278 81.7273Z" fill="white"/>
<path d="M159.731 82.3239V78.4545H160.737V85H159.731V83.892H159.663C159.509 84.2244 159.271 84.5071 158.947 84.7401C158.623 84.9702 158.214 85.0852 157.72 85.0852C157.311 85.0852 156.947 84.9957 156.629 84.8168C156.311 84.6349 156.061 84.3622 155.879 83.9986C155.697 83.6321 155.606 83.1705 155.606 82.6136V78.4545H156.612V82.5455C156.612 83.0227 156.745 83.4034 157.012 83.6875C157.282 83.9716 157.626 84.1136 158.044 84.1136C158.294 84.1136 158.548 84.0497 158.806 83.9219C159.068 83.794 159.286 83.598 159.463 83.3338C159.642 83.0696 159.731 82.733 159.731 82.3239Z" fill="white"/>
<path d="M162.391 85V84.233L166.107 79.4602V79.392H162.51V78.4545H167.403V79.2557L163.789 83.9943V84.0625H167.522V85H162.391Z" fill="white"/>
<path d="M168.883 85V84.233L172.599 79.4602V79.392H169.003V78.4545H173.895V79.2557L170.281 83.9943V84.0625H174.014V85H168.883Z" fill="white"/>
<path d="M178.12 85.1364C177.489 85.1364 176.945 84.9972 176.488 84.7188C176.033 84.4375 175.682 84.0455 175.435 83.5426C175.191 83.0369 175.069 82.4489 175.069 81.7784C175.069 81.108 175.191 80.517 175.435 80.0057C175.682 79.4915 176.026 79.0909 176.466 78.804C176.91 78.5142 177.427 78.3693 178.018 78.3693C178.358 78.3693 178.695 78.4261 179.028 78.5398C179.36 78.6534 179.662 78.8381 179.935 79.0938C180.208 79.3466 180.425 79.6818 180.587 80.0994C180.749 80.517 180.83 81.0312 180.83 81.642V82.0682H175.785V81.1989H179.807C179.807 80.8295 179.733 80.5 179.586 80.2102C179.441 79.9205 179.233 79.6918 178.964 79.5241C178.697 79.3565 178.381 79.2727 178.018 79.2727C177.617 79.2727 177.27 79.3722 176.978 79.571C176.688 79.767 176.465 80.0227 176.309 80.3381C176.153 80.6534 176.074 80.9915 176.074 81.3523V81.9318C176.074 82.4261 176.16 82.8452 176.33 83.1889C176.503 83.5298 176.743 83.7898 177.05 83.9688C177.357 84.1449 177.714 84.233 178.12 84.233C178.384 84.233 178.623 84.196 178.836 84.1222C179.052 84.0455 179.238 83.9318 179.394 83.7812C179.55 83.6278 179.671 83.4375 179.756 83.2102L180.728 83.483C180.626 83.8125 180.454 84.1023 180.212 84.3523C179.971 84.5994 179.672 84.7926 179.317 84.9318C178.962 85.0682 178.563 85.1364 178.12 85.1364Z" fill="white"/>
<path d="M186.996 79.9205L186.093 80.1761C186.036 80.0256 185.952 79.8793 185.841 79.7372C185.733 79.5923 185.586 79.473 185.398 79.3793C185.211 79.2855 184.971 79.2386 184.678 79.2386C184.278 79.2386 183.944 79.331 183.677 79.5156C183.412 79.6974 183.28 79.929 183.28 80.2102C183.28 80.4602 183.371 80.6577 183.553 80.8026C183.735 80.9474 184.019 81.0682 184.405 81.1648L185.377 81.4034C185.962 81.5455 186.398 81.7628 186.685 82.0554C186.972 82.3452 187.116 82.7188 187.116 83.1761C187.116 83.5511 187.008 83.8864 186.792 84.1818C186.579 84.4773 186.28 84.7102 185.897 84.8807C185.513 85.0511 185.067 85.1364 184.559 85.1364C183.891 85.1364 183.339 84.9915 182.901 84.7017C182.464 84.4119 182.187 83.9886 182.07 83.4318L183.025 83.1932C183.116 83.5455 183.287 83.8097 183.54 83.9858C183.796 84.1619 184.13 84.25 184.542 84.25C185.01 84.25 185.383 84.1506 185.658 83.9517C185.937 83.75 186.076 83.5085 186.076 83.2273C186.076 83 185.996 82.8097 185.837 82.6562C185.678 82.5 185.434 82.3835 185.104 82.3068L184.013 82.0511C183.414 81.9091 182.974 81.6889 182.692 81.3906C182.414 81.0895 182.275 80.7131 182.275 80.2614C182.275 79.892 182.378 79.5653 182.586 79.2812C182.796 78.9972 183.081 78.7741 183.442 78.6122C183.806 78.4503 184.218 78.3693 184.678 78.3693C185.326 78.3693 185.834 78.5114 186.204 78.7955C186.576 79.0795 186.84 79.4545 186.996 79.9205Z" fill="white"/>
<path d="M103 22C103 17.5817 106.582 14 111 14C115.418 14 119 17.5817 119 22C119 26.4183 115.418 30 111 30C106.582 30 103 26.4183 103 22Z" fill="white"/>
<path d="M111.485 17.7273V25H110.605V18.6506H110.562L108.787 19.8295V18.9347L110.605 17.7273H111.485Z" fill="black"/>
<path d="M72.7227 224.633V228.734C72.7227 229.411 72.7585 229.835 72.8301 230.004C72.9082 230.173 73.0547 230.323 73.2695 230.453C73.4909 230.577 73.7871 230.639 74.1582 230.639H74.5977V231H67.6738V230.639H68.1133C68.4974 230.639 68.8066 230.57 69.041 230.434C69.2103 230.342 69.3405 230.186 69.4316 229.965C69.5033 229.809 69.5391 229.398 69.5391 228.734V220.023C69.5391 219.346 69.5033 218.923 69.4316 218.754C69.36 218.585 69.2135 218.438 68.9922 218.314C68.7773 218.184 68.4844 218.119 68.1133 218.119H67.6738V217.758H74.5977V218.119H74.1582C73.7741 218.119 73.4648 218.188 73.2305 218.324C73.0612 218.415 72.9277 218.572 72.8301 218.793C72.7585 218.949 72.7227 219.359 72.7227 220.023V223.773H77.4004V220.023C77.4004 219.346 77.3646 218.923 77.293 218.754C77.2214 218.585 77.0749 218.438 76.8535 218.314C76.6322 218.184 76.3359 218.119 75.9648 218.119H75.5352V217.758H82.4492V218.119H82.0195C81.6289 218.119 81.3197 218.188 81.0918 218.324C80.9225 218.415 80.7891 218.572 80.6914 218.793C80.6198 218.949 80.584 219.359 80.584 220.023V228.734C80.584 229.411 80.6198 229.835 80.6914 230.004C80.763 230.173 80.9095 230.323 81.1309 230.453C81.3522 230.577 81.6484 230.639 82.0195 230.639H82.4492V231H75.5352V230.639H75.9648C76.3555 230.639 76.6647 230.57 76.8926 230.434C77.0618 230.342 77.1953 230.186 77.293 229.965C77.3646 229.809 77.4004 229.398 77.4004 228.734V224.633H72.7227Z" fill="#808080"/>
<path d="M91.1406 227.23H86.4629L85.9062 228.52C85.724 228.949 85.6328 229.304 85.6328 229.584C85.6328 229.955 85.7826 230.229 86.082 230.404C86.2578 230.508 86.6908 230.587 87.3809 230.639V231H82.9766V230.639C83.4518 230.567 83.8424 230.372 84.1484 230.053C84.4544 229.727 84.832 229.06 85.2812 228.051L90.0176 217.484H90.2031L94.9785 228.344C95.4342 229.372 95.8086 230.02 96.1016 230.287C96.3229 230.489 96.6354 230.606 97.0391 230.639V231H90.6328V230.639H90.8965C91.4108 230.639 91.7721 230.567 91.9805 230.424C92.1237 230.32 92.1953 230.17 92.1953 229.975C92.1953 229.857 92.1758 229.737 92.1367 229.613C92.1237 229.555 92.026 229.311 91.8438 228.881L91.1406 227.23ZM90.8086 226.508L88.8359 221.947L86.8047 226.508H90.8086Z" fill="#808080"/>
<path d="M106.17 223.979C107.426 224.271 108.309 224.626 108.816 225.043C109.546 225.635 109.91 226.404 109.91 227.348C109.91 228.344 109.51 229.167 108.709 229.818C107.726 230.606 106.297 231 104.422 231H97.6934V230.639C98.3053 230.639 98.7188 230.583 98.9336 230.473C99.1549 230.355 99.3079 230.206 99.3926 230.023C99.4837 229.841 99.5293 229.392 99.5293 228.676V220.082C99.5293 219.366 99.4837 218.917 99.3926 218.734C99.3079 218.546 99.1549 218.396 98.9336 218.285C98.7122 218.174 98.2988 218.119 97.6934 218.119V217.758H104.041C105.558 217.758 106.632 217.895 107.264 218.168C107.895 218.435 108.393 218.839 108.758 219.379C109.122 219.913 109.305 220.482 109.305 221.088C109.305 221.726 109.074 222.296 108.611 222.797C108.149 223.292 107.335 223.686 106.17 223.979ZM102.615 223.715C103.54 223.715 104.22 223.611 104.656 223.402C105.099 223.194 105.438 222.901 105.672 222.523C105.906 222.146 106.023 221.664 106.023 221.078C106.023 220.492 105.906 220.014 105.672 219.643C105.444 219.265 105.115 218.979 104.686 218.783C104.256 218.588 103.566 218.493 102.615 218.5V223.715ZM102.615 224.477V228.725L102.605 229.213C102.605 229.564 102.693 229.831 102.869 230.014C103.051 230.189 103.318 230.277 103.67 230.277C104.191 230.277 104.669 230.163 105.105 229.936C105.548 229.701 105.887 229.366 106.121 228.93C106.355 228.487 106.473 227.995 106.473 227.455C106.473 226.837 106.329 226.283 106.043 225.795C105.757 225.3 105.363 224.955 104.861 224.76C104.36 224.564 103.611 224.47 102.615 224.477Z" fill="#808080"/>
<path d="M117.938 230.639V231H111.014V230.639H111.453C111.837 230.639 112.146 230.57 112.381 230.434C112.55 230.342 112.68 230.186 112.771 229.965C112.843 229.809 112.879 229.398 112.879 228.734V220.023C112.879 219.346 112.843 218.923 112.771 218.754C112.7 218.585 112.553 218.438 112.332 218.314C112.117 218.184 111.824 218.119 111.453 218.119H111.014V217.758H117.938V218.119H117.498C117.114 218.119 116.805 218.188 116.57 218.324C116.401 218.415 116.268 218.572 116.17 218.793C116.098 218.949 116.062 219.359 116.062 220.023V228.734C116.062 229.411 116.098 229.835 116.17 230.004C116.248 230.173 116.395 230.323 116.609 230.453C116.831 230.577 117.127 230.639 117.498 230.639H117.938Z" fill="#808080"/>
<path d="M131.023 217.758V221.342H130.672C130.464 220.515 130.232 219.923 129.979 219.564C129.725 219.2 129.376 218.91 128.934 218.695C128.686 218.578 128.253 218.52 127.635 218.52H126.648V228.734C126.648 229.411 126.684 229.835 126.756 230.004C126.834 230.173 126.98 230.323 127.195 230.453C127.417 230.577 127.716 230.639 128.094 230.639H128.533V231H121.6V230.639H122.039C122.423 230.639 122.732 230.57 122.967 230.434C123.136 230.342 123.27 230.186 123.367 229.965C123.439 229.809 123.475 229.398 123.475 228.734V218.52H122.518C121.626 218.52 120.978 218.708 120.574 219.086C120.008 219.613 119.65 220.365 119.5 221.342H119.129V217.758H131.023Z" fill="#808080"/>
<path d="M200 100C200 155.228 155.228 200 100 200C44.7715 200 0 155.228 0 100C0 44.7715 44.7715 0 100 0C155.228 0 200 44.7715 200 100Z" fill="#808080"/>
<path d="M32.5479 148.091C32.4627 147.371 32.1171 146.813 31.511 146.415C30.9049 146.017 30.1616 145.818 29.2809 145.818C28.637 145.818 28.0735 145.922 27.5906 146.131C27.1123 146.339 26.7383 146.625 26.4684 146.99C26.2032 147.355 26.0707 147.769 26.0707 148.233C26.0707 148.621 26.163 148.955 26.3477 149.234C26.5371 149.509 26.7785 149.739 27.0721 149.923C27.3656 150.103 27.6734 150.252 27.9954 150.371C28.3174 150.484 28.6133 150.577 28.8832 150.648L30.3604 151.045C30.7392 151.145 31.1606 151.282 31.6246 151.457C32.0934 151.633 32.5408 151.872 32.967 152.175C33.3978 152.473 33.753 152.857 34.0323 153.325C34.3117 153.794 34.4514 154.369 34.4514 155.051C34.4514 155.837 34.2454 156.547 33.8335 157.182C33.4263 157.816 32.8297 158.321 32.0437 158.695C31.2624 159.069 30.3131 159.256 29.1957 159.256C28.154 159.256 27.252 159.088 26.4897 158.751C25.7321 158.415 25.1355 157.946 24.6999 157.345C24.2691 156.744 24.0252 156.045 23.9684 155.25H25.7866C25.8339 155.799 26.0186 156.254 26.3406 156.614C26.6673 156.969 27.0792 157.234 27.5763 157.409C28.0782 157.58 28.618 157.665 29.1957 157.665C29.868 157.665 30.4717 157.556 31.0067 157.338C31.5418 157.116 31.9656 156.808 32.2781 156.415C32.5906 156.017 32.7468 155.553 32.7468 155.023C32.7468 154.54 32.6119 154.147 32.342 153.844C32.0721 153.541 31.717 153.295 31.2766 153.105C30.8363 152.916 30.3604 152.75 29.8491 152.608L28.0593 152.097C26.9229 151.77 26.0233 151.304 25.3604 150.697C24.6976 150.091 24.3661 149.298 24.3661 148.318C24.3661 147.504 24.5863 146.794 25.0266 146.188C25.4717 145.577 26.0683 145.103 26.8164 144.767C27.5692 144.426 28.4097 144.256 29.3377 144.256C30.2752 144.256 31.1085 144.424 31.8377 144.76C32.5669 145.091 33.1445 145.546 33.5707 146.124C34.0015 146.701 34.2288 147.357 34.2525 148.091H32.5479Z" fill="white"/>
<path d="M40.3303 159.256C39.639 159.256 39.0116 159.125 38.4482 158.865C37.8847 158.6 37.4373 158.219 37.1058 157.722C36.7744 157.22 36.6087 156.614 36.6087 155.903C36.6087 155.278 36.7318 154.772 36.978 154.384C37.2242 153.991 37.5533 153.683 37.9652 153.46C38.3771 153.238 38.8317 153.072 39.3288 152.963C39.8307 152.849 40.335 152.759 40.8416 152.693C41.5045 152.608 42.0419 152.544 42.4538 152.501C42.8705 152.454 43.1735 152.376 43.3629 152.267C43.5571 152.158 43.6541 151.969 43.6541 151.699V151.642C43.6541 150.941 43.4624 150.397 43.0788 150.009C42.7 149.62 42.1248 149.426 41.353 149.426C40.5528 149.426 39.9254 149.601 39.4709 149.952C39.0163 150.302 38.6967 150.676 38.5121 151.074L36.9212 150.506C37.2053 149.843 37.584 149.327 38.0575 148.957C38.5357 148.583 39.0566 148.323 39.62 148.176C40.1882 148.025 40.7469 147.949 41.2962 147.949C41.6465 147.949 42.049 147.991 42.5036 148.077C42.9628 148.157 43.4055 148.325 43.8317 148.581C44.2625 148.837 44.62 149.223 44.9041 149.739C45.1882 150.255 45.3303 150.946 45.3303 151.812V159H43.6541V157.523H43.5689C43.4553 157.759 43.2659 158.013 43.0007 158.283C42.7356 158.553 42.3828 158.782 41.9425 158.972C41.5021 159.161 40.9647 159.256 40.3303 159.256ZM40.5859 157.75C41.2488 157.75 41.8075 157.62 42.2621 157.359C42.7214 157.099 43.067 156.763 43.299 156.351C43.5357 155.939 43.6541 155.506 43.6541 155.051V153.517C43.5831 153.602 43.4268 153.68 43.1854 153.751C42.9486 153.818 42.674 153.877 42.3615 153.929C42.0537 153.976 41.7531 154.019 41.4595 154.057C41.1707 154.09 40.9363 154.118 40.7564 154.142C40.3208 154.199 39.9136 154.291 39.5348 154.419C39.1607 154.542 38.8577 154.729 38.6257 154.98C38.3984 155.226 38.2848 155.562 38.2848 155.989C38.2848 156.571 38.5002 157.011 38.9311 157.31C39.3667 157.603 39.9183 157.75 40.5859 157.75Z" fill="white"/>
<path d="M53.1339 148.091V149.511H47.4805V148.091H53.1339ZM49.1282 145.477H50.8043V155.875C50.8043 156.348 50.873 156.704 51.0103 156.94C51.1523 157.172 51.3323 157.329 51.5501 157.409C51.7726 157.485 52.007 157.523 52.2532 157.523C52.4379 157.523 52.5894 157.513 52.7077 157.494C52.8261 157.471 52.9208 157.452 52.9918 157.438L53.3327 158.943C53.2191 158.986 53.0605 159.028 52.8569 159.071C52.6533 159.118 52.3952 159.142 52.0827 159.142C51.6093 159.142 51.1452 159.04 50.6907 158.837C50.2409 158.633 49.8668 158.323 49.5685 157.906C49.275 157.49 49.1282 156.964 49.1282 156.33V145.477Z" fill="white"/>
<path d="M55.6552 159V148.091H57.3313V159H55.6552ZM56.5075 146.273C56.1808 146.273 55.899 146.161 55.6623 145.939C55.4303 145.716 55.3143 145.449 55.3143 145.136C55.3143 144.824 55.4303 144.556 55.6623 144.334C55.899 144.111 56.1808 144 56.5075 144C56.8342 144 57.1135 144.111 57.3455 144.334C57.5823 144.556 57.7006 144.824 57.7006 145.136C57.7006 145.449 57.5823 145.716 57.3455 145.939C57.1135 146.161 56.8342 146.273 56.5075 146.273Z" fill="white"/>
<path d="M68.1285 150.534L66.6229 150.96C66.5282 150.709 66.3885 150.465 66.2038 150.229C66.0239 149.987 65.7777 149.788 65.4652 149.632C65.1527 149.476 64.7526 149.398 64.2649 149.398C63.5973 149.398 63.041 149.552 62.5959 149.859C62.1555 150.162 61.9354 150.548 61.9354 151.017C61.9354 151.434 62.0869 151.763 62.3899 152.004C62.6929 152.246 63.1664 152.447 63.8104 152.608L65.4297 153.006C66.4051 153.242 67.1319 153.605 67.6101 154.092C68.0883 154.575 68.3274 155.198 68.3274 155.96C68.3274 156.585 68.1475 157.144 67.7876 157.636C67.4325 158.129 66.9354 158.517 66.2962 158.801C65.657 159.085 64.9136 159.227 64.066 159.227C62.9534 159.227 62.0324 158.986 61.3033 158.503C60.5741 158.02 60.1125 157.314 59.9183 156.386L61.5092 155.989C61.6607 156.576 61.9472 157.016 62.3686 157.31C62.7947 157.603 63.3511 157.75 64.0376 157.75C64.8189 157.75 65.4392 157.584 65.8984 157.253C66.3625 156.917 66.5945 156.514 66.5945 156.045C66.5945 155.667 66.4619 155.349 66.1967 155.094C65.9316 154.833 65.5244 154.639 64.9751 154.511L63.157 154.085C62.1579 153.848 61.424 153.482 60.9553 152.984C60.4912 152.482 60.2592 151.855 60.2592 151.102C60.2592 150.487 60.4321 149.942 60.7777 149.469C61.1281 148.995 61.6039 148.624 62.2053 148.354C62.8113 148.084 63.4979 147.949 64.2649 147.949C65.3445 147.949 66.192 148.186 66.8075 148.659C67.4278 149.133 67.8681 149.758 68.1285 150.534Z" fill="white"/>
<path d="M75.7085 148.091V149.511H69.8278V148.091H75.7085ZM71.5891 159V146.585C71.5891 145.96 71.7359 145.439 72.0295 145.023C72.323 144.606 72.7042 144.294 73.1729 144.085C73.6417 143.877 74.1365 143.773 74.6573 143.773C75.0692 143.773 75.4054 143.806 75.6658 143.872C75.9263 143.938 76.1204 144 76.2482 144.057L75.7653 145.506C75.68 145.477 75.5617 145.442 75.4102 145.399C75.2634 145.357 75.0692 145.335 74.8278 145.335C74.2738 145.335 73.8737 145.475 73.6275 145.754C73.386 146.034 73.2653 146.443 73.2653 146.983V159H71.5891Z" fill="white"/>
<path d="M79.1371 163.091C78.853 163.091 78.5997 163.067 78.3771 163.02C78.1546 162.977 78.0007 162.935 77.9155 162.892L78.3416 161.415C78.7488 161.519 79.1087 161.557 79.4212 161.528C79.7337 161.5 80.0107 161.36 80.2521 161.109C80.4983 160.863 80.7233 160.463 80.9268 159.909L81.2393 159.057L77.2053 148.091H79.0234L82.0348 156.784H82.1484L85.1598 148.091H86.978L82.3473 160.591C82.139 161.154 81.8809 161.621 81.5732 161.99C81.2654 162.364 80.9079 162.641 80.5007 162.821C80.0982 163.001 79.6437 163.091 79.1371 163.091Z" fill="white"/>
<path d="M106.747 149H104.986C104.882 148.493 104.699 148.048 104.439 147.665C104.183 147.281 103.871 146.959 103.501 146.699C103.137 146.434 102.732 146.235 102.287 146.102C101.842 145.97 101.378 145.903 100.895 145.903C100.014 145.903 99.2164 146.126 98.5014 146.571C97.7912 147.016 97.2254 147.672 96.804 148.538C96.3873 149.405 96.179 150.468 96.179 151.727C96.179 152.987 96.3873 154.05 96.804 154.916C97.2254 155.783 97.7912 156.438 98.5014 156.884C99.2164 157.329 100.014 157.551 100.895 157.551C101.378 157.551 101.842 157.485 102.287 157.352C102.732 157.22 103.137 157.023 103.501 156.763C103.871 156.498 104.183 156.173 104.439 155.79C104.699 155.402 104.882 154.956 104.986 154.455H106.747C106.615 155.198 106.373 155.863 106.023 156.45C105.672 157.037 105.237 157.537 104.716 157.949C104.195 158.356 103.61 158.666 102.962 158.879C102.318 159.092 101.629 159.199 100.895 159.199C99.6544 159.199 98.5511 158.896 97.5852 158.29C96.6193 157.684 95.8594 156.822 95.3054 155.705C94.7514 154.587 94.4744 153.261 94.4744 151.727C94.4744 150.193 94.7514 148.867 95.3054 147.75C95.8594 146.633 96.6193 145.771 97.5852 145.165C98.5511 144.559 99.6544 144.256 100.895 144.256C101.629 144.256 102.318 144.362 102.962 144.575C103.61 144.788 104.195 145.101 104.716 145.513C105.237 145.92 105.672 146.417 106.023 147.004C106.373 147.587 106.615 148.252 106.747 149Z" fill="white"/>
<path d="M116.241 154.54V148.091H117.917V159H116.241V157.153H116.127C115.872 157.707 115.474 158.178 114.934 158.567C114.395 158.95 113.713 159.142 112.889 159.142C112.207 159.142 111.601 158.993 111.071 158.695C110.54 158.392 110.124 157.937 109.821 157.331C109.518 156.72 109.366 155.951 109.366 155.023V148.091H111.042V154.909C111.042 155.705 111.265 156.339 111.71 156.812C112.16 157.286 112.733 157.523 113.429 157.523C113.845 157.523 114.269 157.416 114.7 157.203C115.136 156.99 115.5 156.663 115.794 156.223C116.092 155.783 116.241 155.222 116.241 154.54Z" fill="white"/>
<path d="M120.987 159V148.091H122.607V149.739H122.72C122.919 149.199 123.279 148.761 123.8 148.425C124.321 148.089 124.908 147.92 125.561 147.92C125.684 147.92 125.838 147.923 126.023 147.928C126.207 147.932 126.347 147.939 126.442 147.949V149.653C126.385 149.639 126.255 149.618 126.051 149.589C125.852 149.556 125.642 149.54 125.419 149.54C124.889 149.54 124.415 149.651 123.999 149.874C123.587 150.091 123.26 150.394 123.018 150.783C122.782 151.166 122.663 151.604 122.663 152.097V159H120.987Z" fill="white"/>
<path d="M128.429 159V148.091H130.105V159H128.429ZM129.281 146.273C128.954 146.273 128.672 146.161 128.436 145.939C128.204 145.716 128.088 145.449 128.088 145.136C128.088 144.824 128.204 144.556 128.436 144.334C128.672 144.111 128.954 144 129.281 144C129.608 144 129.887 144.111 130.119 144.334C130.356 144.556 130.474 144.824 130.474 145.136C130.474 145.449 130.356 145.716 130.119 145.939C129.887 146.161 129.608 146.273 129.281 146.273Z" fill="white"/>
<path d="M137.607 159.227C136.622 159.227 135.758 158.993 135.014 158.524C134.276 158.055 133.698 157.4 133.281 156.557C132.869 155.714 132.663 154.729 132.663 153.602C132.663 152.466 132.869 151.474 133.281 150.626C133.698 149.779 134.276 149.121 135.014 148.652C135.758 148.183 136.622 147.949 137.607 147.949C138.591 147.949 139.453 148.183 140.192 148.652C140.935 149.121 141.513 149.779 141.925 150.626C142.341 151.474 142.55 152.466 142.55 153.602C142.55 154.729 142.341 155.714 141.925 156.557C141.513 157.4 140.935 158.055 140.192 158.524C139.453 158.993 138.591 159.227 137.607 159.227ZM137.607 157.722C138.355 157.722 138.97 157.53 139.453 157.146C139.936 156.763 140.294 156.259 140.526 155.634C140.758 155.009 140.874 154.331 140.874 153.602C140.874 152.873 140.758 152.194 140.526 151.564C140.294 150.934 139.936 150.425 139.453 150.037C138.97 149.649 138.355 149.455 137.607 149.455C136.858 149.455 136.243 149.649 135.76 150.037C135.277 150.425 134.92 150.934 134.688 151.564C134.455 152.194 134.339 152.873 134.339 153.602C134.339 154.331 134.455 155.009 134.688 155.634C134.92 156.259 135.277 156.763 135.76 157.146C136.243 157.53 136.858 157.722 137.607 157.722Z" fill="white"/>
<path d="M152.836 150.534L151.33 150.96C151.235 150.709 151.096 150.465 150.911 150.229C150.731 149.987 150.485 149.788 150.172 149.632C149.86 149.476 149.46 149.398 148.972 149.398C148.304 149.398 147.748 149.552 147.303 149.859C146.863 150.162 146.642 150.548 146.642 151.017C146.642 151.434 146.794 151.763 147.097 152.004C147.4 152.246 147.873 152.447 148.517 152.608L150.137 153.006C151.112 153.242 151.839 153.605 152.317 154.092C152.795 154.575 153.034 155.198 153.034 155.96C153.034 156.585 152.855 157.144 152.495 157.636C152.14 158.129 151.642 158.517 151.003 158.801C150.364 159.085 149.621 159.227 148.773 159.227C147.66 159.227 146.739 158.986 146.01 158.503C145.281 158.02 144.819 157.314 144.625 156.386L146.216 155.989C146.368 156.576 146.654 157.016 147.076 157.31C147.502 157.603 148.058 157.75 148.745 157.75C149.526 157.75 150.146 157.584 150.605 157.253C151.069 156.917 151.301 156.514 151.301 156.045C151.301 155.667 151.169 155.349 150.904 155.094C150.639 154.833 150.231 154.639 149.682 154.511L147.864 154.085C146.865 153.848 146.131 153.482 145.662 152.984C145.198 152.482 144.966 151.855 144.966 151.102C144.966 150.487 145.139 149.942 145.485 149.469C145.835 148.995 146.311 148.624 146.912 148.354C147.518 148.084 148.205 147.949 148.972 147.949C150.051 147.949 150.899 148.186 151.515 148.659C152.135 149.133 152.575 149.758 152.836 150.534Z" fill="white"/>
<path d="M155.558 159V148.091H157.234V159H155.558ZM156.41 146.273C156.083 146.273 155.801 146.161 155.565 145.939C155.333 145.716 155.217 145.449 155.217 145.136C155.217 144.824 155.333 144.556 155.565 144.334C155.801 144.111 156.083 144 156.41 144C156.737 144 157.016 144.111 157.248 144.334C157.485 144.556 157.603 144.824 157.603 145.136C157.603 145.449 157.485 145.716 157.248 145.939C157.016 146.161 156.737 146.273 156.41 146.273Z" fill="white"/>
<path d="M165.048 148.091V149.511H159.395V148.091H165.048ZM161.042 145.477H162.718V155.875C162.718 156.348 162.787 156.704 162.924 156.94C163.066 157.172 163.246 157.329 163.464 157.409C163.687 157.485 163.921 157.523 164.167 157.523C164.352 157.523 164.503 157.513 164.622 157.494C164.74 157.471 164.835 157.452 164.906 157.438L165.247 158.943C165.133 158.986 164.975 159.028 164.771 159.071C164.567 159.118 164.309 159.142 163.997 159.142C163.523 159.142 163.059 159.04 162.605 158.837C162.155 158.633 161.781 158.323 161.483 157.906C161.189 157.49 161.042 156.964 161.042 156.33V145.477Z" fill="white"/>
<path d="M168.649 163.091C168.365 163.091 168.111 163.067 167.889 163.02C167.666 162.977 167.512 162.935 167.427 162.892L167.853 161.415C168.261 161.519 168.62 161.557 168.933 161.528C169.245 161.5 169.522 161.36 169.764 161.109C170.01 160.863 170.235 160.463 170.439 159.909L170.751 159.057L166.717 148.091H168.535L171.547 156.784H171.66L174.672 148.091H176.49L171.859 160.591C171.651 161.154 171.393 161.621 171.085 161.99C170.777 162.364 170.42 162.641 170.012 162.821C169.61 163.001 169.155 163.091 168.649 163.091Z" fill="white"/>
<path d="M89 26.5C89 20.701 93.701 16 99.5 16C105.299 16 110 20.701 110 26.5C110 32.299 105.299 37 99.5 37C93.701 37 89 32.299 89 26.5Z" fill="white"/>
<path d="M96.0867 29.0611V28.1193L100.242 21.5455H100.925V23.0043H100.463L97.3239 27.9716V28.0455H102.919V29.0611H96.0867ZM100.537 31V21.5455H101.626V31H100.537Z" fill="black"/>
<path d="M100.926 77.0776C89.7688 77.0776 80.6914 86.155 80.6914 97.3125C80.6914 101.884 82.189 106.201 85.0224 109.796C85.5653 110.485 86.1501 111.164 86.7153 111.82C88.4033 113.778 89.9974 115.629 90.5647 117.71C90.577 117.754 90.6838 118.191 90.668 119.679L90.6653 119.894C90.6482 121.101 90.6253 122.755 91.8479 123.995C92.6851 124.844 93.8585 125.257 95.4359 125.257H106.379C108.083 125.257 109.307 124.84 110.123 123.983C111.226 122.823 111.152 121.325 111.103 120.334C111.094 120.159 111.085 119.982 111.083 119.806C111.065 118.317 111.177 117.897 111.181 117.879C111.758 115.799 113.625 113.604 115.273 111.669C115.823 111.023 116.342 110.413 116.826 109.799C119.66 106.204 121.158 101.886 121.158 97.3128C121.159 86.1553 112.083 77.0776 100.926 77.0776ZM113.625 107.275C113.188 107.828 112.693 108.411 112.169 109.027C110.248 111.284 108.07 113.842 107.254 116.791C107.137 117.211 106.985 117.985 107.008 119.854C107.011 120.081 107.021 120.309 107.033 120.535C107.041 120.714 107.053 120.949 107.052 121.135C106.908 121.159 106.692 121.181 106.379 121.181H95.4359C95.0892 121.181 94.8864 121.144 94.7824 121.116C94.7286 120.851 94.7362 120.299 94.7411 119.951L94.7443 119.722C94.7639 117.842 94.6131 117.062 94.4979 116.638C93.6881 113.666 91.6242 111.272 89.8036 109.159C89.2422 108.507 88.7115 107.892 88.224 107.273C85.9631 104.404 84.768 100.96 84.768 97.3122C84.768 88.4023 92.0169 81.1534 100.927 81.1534C109.835 81.1534 117.083 88.4023 117.083 97.3122C117.082 100.961 115.887 104.407 113.625 107.275Z" fill="white"/>
<path d="M105.958 127.098H95.8924C93.7199 127.098 91.9522 128.866 91.9522 131.039V134.06C91.9522 136.232 93.7199 138 95.8924 138H105.958C108.13 138 109.898 136.232 109.898 134.06V131.039C109.898 128.866 108.13 127.098 105.958 127.098ZM105.822 133.924H96.0283V131.175H105.822V133.924Z" fill="white"/>
<path d="M100.925 74.4399C102.051 74.4399 102.963 73.5276 102.963 72.4018V64.038C102.963 62.9122 102.051 62 100.925 62C99.7992 62 98.887 62.9122 98.887 64.038V72.4018C98.887 73.5276 99.7995 74.4399 100.925 74.4399Z" fill="white"/>
<path d="M127.738 71.4016C126.961 70.5877 125.671 70.5576 124.856 71.3342L118.669 77.239C117.854 78.0159 117.825 79.3061 118.602 80.1205C119.002 80.5401 119.538 80.7515 120.076 80.7515C120.582 80.7515 121.088 80.5645 121.483 80.1879L127.67 74.2828C128.485 73.5059 128.515 72.2157 127.738 71.4016Z" fill="white"/>
<path d="M133.813 91.7821C133.812 91.7821 133.811 91.7821 133.81 91.7821L125.845 91.7949C124.719 91.7968 123.808 92.7106 123.81 93.8362C123.812 94.9609 124.724 95.871 125.848 95.871C125.849 95.871 125.85 95.871 125.851 95.871L133.816 95.8582C134.942 95.8563 135.853 94.9424 135.851 93.8169C135.849 92.6922 134.937 91.7821 133.813 91.7821Z" fill="white"/>
<path d="M82.2134 79.577C82.9903 78.7629 82.9604 77.473 82.146 76.6955L75.9586 70.7907C75.145 70.0141 73.8548 70.0437 73.0771 70.8581C72.3002 71.6722 72.3301 72.9622 73.1445 73.7396L79.3319 79.6447C79.7265 80.0213 80.2327 80.2083 80.7387 80.2083C81.2762 80.208 81.8129 79.9966 82.2134 79.577Z" fill="white"/>
<path d="M74.1545 91.7949L66.1899 91.7821C66.1888 91.7821 66.1877 91.7821 66.1867 91.7821C65.0625 91.7821 64.1505 92.6927 64.1486 93.8169C64.1467 94.9424 65.0579 95.8563 66.1834 95.8582L74.148 95.871C74.1491 95.871 74.1502 95.871 74.1513 95.871C75.2755 95.871 76.1874 94.9604 76.1893 93.8362C76.1915 92.7106 75.2803 91.7965 74.1545 91.7949Z" fill="white"/>
</svg>
