<svg width="200" height="231" viewBox="0 0 200 231" fill="none" xmlns="http://www.w3.org/2000/svg">
<path d="M72.7227 224.633V228.734C72.7227 229.411 72.7585 229.835 72.8301 230.004C72.9082 230.173 73.0547 230.323 73.2695 230.453C73.4909 230.577 73.7871 230.639 74.1582 230.639H74.5977V231H67.6738V230.639H68.1133C68.4974 230.639 68.8066 230.57 69.041 230.434C69.2103 230.342 69.3405 230.186 69.4316 229.965C69.5033 229.809 69.5391 229.398 69.5391 228.734V220.023C69.5391 219.346 69.5033 218.923 69.4316 218.754C69.36 218.585 69.2135 218.438 68.9922 218.314C68.7773 218.184 68.4844 218.119 68.1133 218.119H67.6738V217.758H74.5977V218.119H74.1582C73.7741 218.119 73.4648 218.188 73.2305 218.324C73.0612 218.415 72.9277 218.572 72.8301 218.793C72.7585 218.949 72.7227 219.359 72.7227 220.023V223.773H77.4004V220.023C77.4004 219.346 77.3646 218.923 77.293 218.754C77.2214 218.585 77.0749 218.438 76.8535 218.314C76.6322 218.184 76.3359 218.119 75.9648 218.119H75.5352V217.758H82.4492V218.119H82.0195C81.6289 218.119 81.3197 218.188 81.0918 218.324C80.9225 218.415 80.7891 218.572 80.6914 218.793C80.6198 218.949 80.584 219.359 80.584 220.023V228.734C80.584 229.411 80.6198 229.835 80.6914 230.004C80.763 230.173 80.9095 230.323 81.1309 230.453C81.3522 230.577 81.6484 230.639 82.0195 230.639H82.4492V231H75.5352V230.639H75.9648C76.3555 230.639 76.6647 230.57 76.8926 230.434C77.0618 230.342 77.1953 230.186 77.293 229.965C77.3646 229.809 77.4004 229.398 77.4004 228.734V224.633H72.7227Z" fill="#808080"/>
<path d="M91.1406 227.23H86.4629L85.9062 228.52C85.724 228.949 85.6328 229.304 85.6328 229.584C85.6328 229.955 85.7826 230.229 86.082 230.404C86.2578 230.508 86.6908 230.587 87.3809 230.639V231H82.9766V230.639C83.4518 230.567 83.8424 230.372 84.1484 230.053C84.4544 229.727 84.832 229.06 85.2812 228.051L90.0176 217.484H90.2031L94.9785 228.344C95.4342 229.372 95.8086 230.02 96.1016 230.287C96.3229 230.489 96.6354 230.606 97.0391 230.639V231H90.6328V230.639H90.8965C91.4108 230.639 91.7721 230.567 91.9805 230.424C92.1237 230.32 92.1953 230.17 92.1953 229.975C92.1953 229.857 92.1758 229.737 92.1367 229.613C92.1237 229.555 92.026 229.311 91.8438 228.881L91.1406 227.23ZM90.8086 226.508L88.8359 221.947L86.8047 226.508H90.8086Z" fill="#808080"/>
<path d="M106.17 223.979C107.426 224.271 108.309 224.626 108.816 225.043C109.546 225.635 109.91 226.404 109.91 227.348C109.91 228.344 109.51 229.167 108.709 229.818C107.726 230.606 106.297 231 104.422 231H97.6934V230.639C98.3053 230.639 98.7188 230.583 98.9336 230.473C99.1549 230.355 99.3079 230.206 99.3926 230.023C99.4837 229.841 99.5293 229.392 99.5293 228.676V220.082C99.5293 219.366 99.4837 218.917 99.3926 218.734C99.3079 218.546 99.1549 218.396 98.9336 218.285C98.7122 218.174 98.2988 218.119 97.6934 218.119V217.758H104.041C105.558 217.758 106.632 217.895 107.264 218.168C107.895 218.435 108.393 218.839 108.758 219.379C109.122 219.913 109.305 220.482 109.305 221.088C109.305 221.726 109.074 222.296 108.611 222.797C108.149 223.292 107.335 223.686 106.17 223.979ZM102.615 223.715C103.54 223.715 104.22 223.611 104.656 223.402C105.099 223.194 105.438 222.901 105.672 222.523C105.906 222.146 106.023 221.664 106.023 221.078C106.023 220.492 105.906 220.014 105.672 219.643C105.444 219.265 105.115 218.979 104.686 218.783C104.256 218.588 103.566 218.493 102.615 218.5V223.715ZM102.615 224.477V228.725L102.605 229.213C102.605 229.564 102.693 229.831 102.869 230.014C103.051 230.189 103.318 230.277 103.67 230.277C104.191 230.277 104.669 230.163 105.105 229.936C105.548 229.701 105.887 229.366 106.121 228.93C106.355 228.487 106.473 227.995 106.473 227.455C106.473 226.837 106.329 226.283 106.043 225.795C105.757 225.3 105.363 224.955 104.861 224.76C104.36 224.564 103.611 224.47 102.615 224.477Z" fill="#808080"/>
<path d="M117.938 230.639V231H111.014V230.639H111.453C111.837 230.639 112.146 230.57 112.381 230.434C112.55 230.342 112.68 230.186 112.771 229.965C112.843 229.809 112.879 229.398 112.879 228.734V220.023C112.879 219.346 112.843 218.923 112.771 218.754C112.7 218.585 112.553 218.438 112.332 218.314C112.117 218.184 111.824 218.119 111.453 218.119H111.014V217.758H117.938V218.119H117.498C117.114 218.119 116.805 218.188 116.57 218.324C116.401 218.415 116.268 218.572 116.17 218.793C116.098 218.949 116.062 219.359 116.062 220.023V228.734C116.062 229.411 116.098 229.835 116.17 230.004C116.248 230.173 116.395 230.323 116.609 230.453C116.831 230.577 117.127 230.639 117.498 230.639H117.938Z" fill="#808080"/>
<path d="M131.023 217.758V221.342H130.672C130.464 220.515 130.232 219.923 129.979 219.564C129.725 219.2 129.376 218.91 128.934 218.695C128.686 218.578 128.253 218.52 127.635 218.52H126.648V228.734C126.648 229.411 126.684 229.835 126.756 230.004C126.834 230.173 126.98 230.323 127.195 230.453C127.417 230.577 127.716 230.639 128.094 230.639H128.533V231H121.6V230.639H122.039C122.423 230.639 122.732 230.57 122.967 230.434C123.136 230.342 123.27 230.186 123.367 229.965C123.439 229.809 123.475 229.398 123.475 228.734V218.52H122.518C121.626 218.52 120.978 218.708 120.574 219.086C120.008 219.613 119.65 220.365 119.5 221.342H119.129V217.758H131.023Z" fill="#808080"/>
<path d="M200 100C200 155.228 155.228 200 100 200C44.7715 200 0 155.228 0 100C0 44.7715 44.7715 0 100 0C155.228 0 200 44.7715 200 100Z" fill="#808080"/>
<path fill-rule="evenodd" clip-rule="evenodd" d="M147.364 36.1224L157.493 38.886C158.414 39.1372 159.154 39.7492 159.591 40.5274C160.036 41.3127 160.183 42.2654 159.937 43.1982L153.834 66.3891C153.588 67.3283 152.987 68.0814 152.224 68.5265C151.452 68.9807 150.517 69.1289 149.601 68.8789L139.471 66.1153C138.549 65.8641 137.809 65.2528 137.373 64.4746C136.927 63.69 136.781 62.7378 137.027 61.8031L143.13 38.6077C143.377 37.6691 143.978 36.9154 144.742 36.4703C145.512 36.0174 146.442 35.8705 147.364 36.1224ZM160.868 49.3213C160.654 48.9579 160.771 48.4864 161.128 48.2687C161.485 48.0516 161.947 48.1701 162.161 48.5334L163.893 51.4735C164.107 51.8368 163.99 52.3084 163.633 52.5255L161.47 53.6438L162.783 55.519C163.024 55.8643 162.945 56.3436 162.605 56.5897C162.572 56.6135 162.537 56.6348 162.502 56.6522L160.335 57.7492L161.648 60.0387C161.856 60.4059 161.733 60.8755 161.372 61.0881L158.398 62.8886C158.041 63.1044 157.58 62.9846 157.368 62.6212C157.156 62.2573 157.273 61.787 157.63 61.5719L159.968 60.1546L158.602 57.7673C158.418 57.3872 158.571 56.9266 158.944 56.7391L161.041 55.6769L159.742 53.819C159.717 53.7849 159.694 53.7475 159.674 53.7082C159.487 53.3294 159.636 52.8682 160.008 52.6769L162.183 51.5547L160.868 49.3213ZM138.584 42.1005C138.947 41.8944 139.406 42.0277 139.608 42.3981C139.81 42.7685 139.679 43.2356 139.316 43.4411L137.08 44.7056L138.415 46.7883C138.641 47.1433 138.542 47.6187 138.193 47.8493C138.154 47.8751 138.113 47.897 138.071 47.915L136.045 48.8562L137.342 50.8467C137.572 51.2004 137.476 51.6771 137.129 51.9109L134.779 53.2818L136.107 55.6975C136.311 56.0679 136.182 56.5362 135.818 56.7443C135.454 56.9517 134.995 56.8197 134.791 56.4492L133.1 53.3739C132.893 53.0048 133.018 52.5351 133.38 52.3245L135.638 51.0103L134.299 48.956C134.279 48.9225 134.26 48.8871 134.244 48.8504C134.071 48.4658 134.237 48.0103 134.616 47.8345L136.673 46.8785L135.348 44.8081C135.146 44.4376 135.277 43.9706 135.64 43.7651L138.584 42.1005ZM145.499 63.8381C146.254 64.0443 146.709 64.8321 146.504 65.6103C146.301 66.3807 145.528 66.8433 144.763 66.6346C144.293 66.507 143.94 66.154 143.789 65.7192C143.697 65.4531 143.68 65.1568 143.757 64.8611C143.959 64.0926 144.733 63.6288 145.499 63.8381ZM138.202 60.7061L153.355 64.8405L159.028 43.28L143.876 39.1463L138.202 60.7061Z" fill="white"/>
<path d="M109.211 87.4545V78.4545H110.183V79.4943H110.302C110.376 79.3807 110.479 79.2358 110.609 79.0597C110.743 78.8807 110.933 78.7216 111.18 78.5824C111.43 78.4403 111.768 78.3693 112.194 78.3693C112.746 78.3693 113.231 78.5071 113.652 78.7827C114.072 79.0582 114.4 79.4489 114.636 79.9545C114.872 80.4602 114.99 81.0568 114.99 81.7443C114.99 82.4375 114.872 83.0384 114.636 83.5469C114.4 84.0526 114.074 84.4446 113.656 84.723C113.238 84.9986 112.757 85.1364 112.211 85.1364C111.791 85.1364 111.454 85.0668 111.202 84.9276C110.949 84.7855 110.754 84.625 110.618 84.446C110.481 84.2642 110.376 84.1136 110.302 83.9943H110.217V87.4545H109.211ZM110.2 81.7273C110.2 82.2216 110.273 82.6577 110.417 83.0355C110.562 83.4105 110.774 83.7045 111.052 83.9176C111.331 84.1278 111.672 84.233 112.075 84.233C112.496 84.233 112.846 84.1222 113.128 83.9006C113.412 83.6761 113.625 83.375 113.767 82.9972C113.912 82.6165 113.984 82.1932 113.984 81.7273C113.984 81.267 113.913 80.8523 113.771 80.483C113.632 80.1108 113.42 79.8168 113.136 79.6009C112.855 79.3821 112.501 79.2727 112.075 79.2727C111.666 79.2727 111.322 79.3764 111.044 79.5838C110.765 79.7884 110.555 80.0753 110.413 80.4446C110.271 80.8111 110.2 81.2386 110.2 81.7273Z" fill="white"/>
<path d="M117.53 81.0625V85H116.524V76.2727H117.53V79.4773H117.615C117.768 79.1392 117.998 78.8707 118.305 78.6719C118.615 78.4702 119.027 78.3693 119.541 78.3693C119.987 78.3693 120.378 78.4588 120.713 78.6378C121.048 78.8139 121.308 79.0852 121.493 79.4517C121.68 79.8153 121.774 80.2784 121.774 80.8409V85H120.768V80.9091C120.768 80.3892 120.633 79.9872 120.363 79.7031C120.096 79.4162 119.726 79.2727 119.251 79.2727C118.922 79.2727 118.626 79.3423 118.365 79.4815C118.106 79.6207 117.902 79.8239 117.751 80.0909C117.604 80.358 117.53 80.6818 117.53 81.0625Z" fill="white"/>
<path d="M126.273 85.1364C125.682 85.1364 125.164 84.9957 124.718 84.7145C124.274 84.4332 123.928 84.0398 123.678 83.5341C123.431 83.0284 123.307 82.4375 123.307 81.7614C123.307 81.0795 123.431 80.4844 123.678 79.9759C123.928 79.4673 124.274 79.0724 124.718 78.7912C125.164 78.5099 125.682 78.3693 126.273 78.3693C126.864 78.3693 127.381 78.5099 127.824 78.7912C128.27 79.0724 128.617 79.4673 128.864 79.9759C129.114 80.4844 129.239 81.0795 129.239 81.7614C129.239 82.4375 129.114 83.0284 128.864 83.5341C128.617 84.0398 128.27 84.4332 127.824 84.7145C127.381 84.9957 126.864 85.1364 126.273 85.1364ZM126.273 84.233C126.722 84.233 127.091 84.1179 127.381 83.8878C127.671 83.6577 127.885 83.3551 128.024 82.9801C128.164 82.6051 128.233 82.1989 128.233 81.7614C128.233 81.3239 128.164 80.9162 128.024 80.5384C127.885 80.1605 127.671 79.8551 127.381 79.6222C127.091 79.3892 126.722 79.2727 126.273 79.2727C125.824 79.2727 125.455 79.3892 125.165 79.6222C124.875 79.8551 124.661 80.1605 124.521 80.5384C124.382 80.9162 124.313 81.3239 124.313 81.7614C124.313 82.1989 124.382 82.6051 124.521 82.9801C124.661 83.3551 124.875 83.6577 125.165 83.8878C125.455 84.1179 125.824 84.233 126.273 84.233Z" fill="white"/>
<path d="M131.78 81.0625V85H130.774V78.4545H131.746V79.4773H131.831C131.984 79.1449 132.217 78.8778 132.53 78.6761C132.842 78.4716 133.246 78.3693 133.74 78.3693C134.183 78.3693 134.571 78.4602 134.903 78.642C135.236 78.821 135.494 79.0938 135.679 79.4602C135.863 79.8239 135.956 80.2841 135.956 80.8409V85H134.95V80.9091C134.95 80.3949 134.817 79.9943 134.55 79.7074C134.282 79.4176 133.916 79.2727 133.45 79.2727C133.129 79.2727 132.842 79.3423 132.589 79.4815C132.339 79.6207 132.142 79.8239 131.997 80.0909C131.852 80.358 131.78 80.6818 131.78 81.0625Z" fill="white"/>
<path d="M140.538 85.1364C139.907 85.1364 139.363 84.9972 138.906 84.7188C138.451 84.4375 138.1 84.0455 137.853 83.5426C137.609 83.0369 137.487 82.4489 137.487 81.7784C137.487 81.108 137.609 80.517 137.853 80.0057C138.1 79.4915 138.444 79.0909 138.884 78.804C139.328 78.5142 139.845 78.3693 140.436 78.3693C140.776 78.3693 141.113 78.4261 141.445 78.5398C141.778 78.6534 142.08 78.8381 142.353 79.0938C142.626 79.3466 142.843 79.6818 143.005 80.0994C143.167 80.517 143.248 81.0312 143.248 81.642V82.0682H138.203V81.1989H142.225C142.225 80.8295 142.151 80.5 142.004 80.2102C141.859 79.9205 141.651 79.6918 141.382 79.5241C141.115 79.3565 140.799 79.2727 140.436 79.2727C140.035 79.2727 139.688 79.3722 139.396 79.571C139.106 79.767 138.883 80.0227 138.727 80.3381C138.57 80.6534 138.492 80.9915 138.492 81.3523V81.9318C138.492 82.4261 138.578 82.8452 138.748 83.1889C138.921 83.5298 139.161 83.7898 139.468 83.9688C139.775 84.1449 140.132 84.233 140.538 84.233C140.802 84.233 141.041 84.196 141.254 84.1222C141.47 84.0455 141.656 83.9318 141.812 83.7812C141.968 83.6278 142.089 83.4375 142.174 83.2102L143.146 83.483C143.043 83.8125 142.872 84.1023 142.63 84.3523C142.389 84.5994 142.09 84.7926 141.735 84.9318C141.38 85.0682 140.981 85.1364 140.538 85.1364Z" fill="white"/>
<path d="M148.289 85V76.2727H149.295V79.4943H149.38C149.454 79.3807 149.556 79.2358 149.687 79.0597C149.82 78.8807 150.011 78.7216 150.258 78.5824C150.508 78.4403 150.846 78.3693 151.272 78.3693C151.823 78.3693 152.309 78.5071 152.73 78.7827C153.15 79.0582 153.478 79.4489 153.714 79.9545C153.95 80.4602 154.068 81.0568 154.068 81.7443C154.068 82.4375 153.95 83.0384 153.714 83.5469C153.478 84.0526 153.151 84.4446 152.734 84.723C152.316 84.9986 151.835 85.1364 151.289 85.1364C150.869 85.1364 150.532 85.0668 150.279 84.9276C150.026 84.7855 149.832 84.625 149.695 84.446C149.559 84.2642 149.454 84.1136 149.38 83.9943H149.261V85H148.289ZM149.278 81.7273C149.278 82.2216 149.35 82.6577 149.495 83.0355C149.64 83.4105 149.852 83.7045 150.13 83.9176C150.409 84.1278 150.749 84.233 151.153 84.233C151.573 84.233 151.924 84.1222 152.205 83.9006C152.49 83.6761 152.703 83.375 152.845 82.9972C152.99 82.6165 153.062 82.1932 153.062 81.7273C153.062 81.267 152.991 80.8523 152.849 80.483C152.71 80.1108 152.498 79.8168 152.214 79.6009C151.933 79.3821 151.579 79.2727 151.153 79.2727C150.744 79.2727 150.4 79.3764 150.122 79.5838C149.843 79.7884 149.633 80.0753 149.491 80.4446C149.349 80.8111 149.278 81.2386 149.278 81.7273Z" fill="white"/>
<path d="M159.731 82.3239V78.4545H160.737V85H159.731V83.892H159.663C159.509 84.2244 159.271 84.5071 158.947 84.7401C158.623 84.9702 158.214 85.0852 157.72 85.0852C157.311 85.0852 156.947 84.9957 156.629 84.8168C156.311 84.6349 156.061 84.3622 155.879 83.9986C155.697 83.6321 155.606 83.1705 155.606 82.6136V78.4545H156.612V82.5455C156.612 83.0227 156.745 83.4034 157.012 83.6875C157.282 83.9716 157.626 84.1136 158.044 84.1136C158.294 84.1136 158.548 84.0497 158.806 83.9219C159.068 83.794 159.286 83.598 159.463 83.3338C159.642 83.0696 159.731 82.733 159.731 82.3239Z" fill="white"/>
<path d="M162.391 85V84.233L166.107 79.4602V79.392H162.51V78.4545H167.403V79.2557L163.789 83.9943V84.0625H167.522V85H162.391Z" fill="white"/>
<path d="M168.883 85V84.233L172.599 79.4602V79.392H169.003V78.4545H173.895V79.2557L170.281 83.9943V84.0625H174.014V85H168.883Z" fill="white"/>
<path d="M178.12 85.1364C177.489 85.1364 176.945 84.9972 176.488 84.7188C176.033 84.4375 175.682 84.0455 175.435 83.5426C175.191 83.0369 175.069 82.4489 175.069 81.7784C175.069 81.108 175.191 80.517 175.435 80.0057C175.682 79.4915 176.026 79.0909 176.466 78.804C176.91 78.5142 177.427 78.3693 178.018 78.3693C178.358 78.3693 178.695 78.4261 179.028 78.5398C179.36 78.6534 179.662 78.8381 179.935 79.0938C180.208 79.3466 180.425 79.6818 180.587 80.0994C180.749 80.517 180.83 81.0312 180.83 81.642V82.0682H175.785V81.1989H179.807C179.807 80.8295 179.733 80.5 179.586 80.2102C179.441 79.9205 179.233 79.6918 178.964 79.5241C178.697 79.3565 178.381 79.2727 178.018 79.2727C177.617 79.2727 177.27 79.3722 176.978 79.571C176.688 79.767 176.465 80.0227 176.309 80.3381C176.153 80.6534 176.074 80.9915 176.074 81.3523V81.9318C176.074 82.4261 176.16 82.8452 176.33 83.1889C176.503 83.5298 176.743 83.7898 177.05 83.9688C177.357 84.1449 177.714 84.233 178.12 84.233C178.384 84.233 178.623 84.196 178.836 84.1222C179.052 84.0455 179.238 83.9318 179.394 83.7812C179.55 83.6278 179.671 83.4375 179.756 83.2102L180.728 83.483C180.626 83.8125 180.454 84.1023 180.212 84.3523C179.971 84.5994 179.672 84.7926 179.317 84.9318C178.962 85.0682 178.563 85.1364 178.12 85.1364Z" fill="white"/>
<path d="M186.996 79.9205L186.093 80.1761C186.036 80.0256 185.952 79.8793 185.841 79.7372C185.733 79.5923 185.586 79.473 185.398 79.3793C185.211 79.2855 184.971 79.2386 184.678 79.2386C184.278 79.2386 183.944 79.331 183.677 79.5156C183.412 79.6974 183.28 79.929 183.28 80.2102C183.28 80.4602 183.371 80.6577 183.553 80.8026C183.735 80.9474 184.019 81.0682 184.405 81.1648L185.377 81.4034C185.962 81.5455 186.398 81.7628 186.685 82.0554C186.972 82.3452 187.116 82.7188 187.116 83.1761C187.116 83.5511 187.008 83.8864 186.792 84.1818C186.579 84.4773 186.28 84.7102 185.897 84.8807C185.513 85.0511 185.067 85.1364 184.559 85.1364C183.891 85.1364 183.339 84.9915 182.901 84.7017C182.464 84.4119 182.187 83.9886 182.07 83.4318L183.025 83.1932C183.116 83.5455 183.287 83.8097 183.54 83.9858C183.796 84.1619 184.13 84.25 184.542 84.25C185.01 84.25 185.383 84.1506 185.658 83.9517C185.937 83.75 186.076 83.5085 186.076 83.2273C186.076 83 185.996 82.8097 185.837 82.6562C185.678 82.5 185.434 82.3835 185.104 82.3068L184.013 82.0511C183.414 81.9091 182.974 81.6889 182.692 81.3906C182.414 81.0895 182.275 80.7131 182.275 80.2614C182.275 79.892 182.378 79.5653 182.586 79.2812C182.796 78.9972 183.081 78.7741 183.442 78.6122C183.806 78.4503 184.218 78.3693 184.678 78.3693C185.326 78.3693 185.834 78.5114 186.204 78.7955C186.576 79.0795 186.84 79.4545 186.996 79.9205Z" fill="white"/>
<path d="M103 22C103 17.5817 106.582 14 111 14C115.418 14 119 17.5817 119 22C119 26.4183 115.418 30 111 30C106.582 30 103 26.4183 103 22Z" fill="white"/>
<path d="M111.485 17.7273V25H110.605V18.6506H110.562L108.787 19.8295V18.9347L110.605 17.7273H111.485Z" fill="black"/>
<path d="M72.7227 224.633V228.734C72.7227 229.411 72.7585 229.835 72.8301 230.004C72.9082 230.173 73.0547 230.323 73.2695 230.453C73.4909 230.577 73.7871 230.639 74.1582 230.639H74.5977V231H67.6738V230.639H68.1133C68.4974 230.639 68.8066 230.57 69.041 230.434C69.2103 230.342 69.3405 230.186 69.4316 229.965C69.5033 229.809 69.5391 229.398 69.5391 228.734V220.023C69.5391 219.346 69.5033 218.923 69.4316 218.754C69.36 218.585 69.2135 218.438 68.9922 218.314C68.7773 218.184 68.4844 218.119 68.1133 218.119H67.6738V217.758H74.5977V218.119H74.1582C73.7741 218.119 73.4648 218.188 73.2305 218.324C73.0612 218.415 72.9277 218.572 72.8301 218.793C72.7585 218.949 72.7227 219.359 72.7227 220.023V223.773H77.4004V220.023C77.4004 219.346 77.3646 218.923 77.293 218.754C77.2214 218.585 77.0749 218.438 76.8535 218.314C76.6322 218.184 76.3359 218.119 75.9648 218.119H75.5352V217.758H82.4492V218.119H82.0195C81.6289 218.119 81.3197 218.188 81.0918 218.324C80.9225 218.415 80.7891 218.572 80.6914 218.793C80.6198 218.949 80.584 219.359 80.584 220.023V228.734C80.584 229.411 80.6198 229.835 80.6914 230.004C80.763 230.173 80.9095 230.323 81.1309 230.453C81.3522 230.577 81.6484 230.639 82.0195 230.639H82.4492V231H75.5352V230.639H75.9648C76.3555 230.639 76.6647 230.57 76.8926 230.434C77.0618 230.342 77.1953 230.186 77.293 229.965C77.3646 229.809 77.4004 229.398 77.4004 228.734V224.633H72.7227Z" fill="#808080"/>
<path d="M91.1406 227.23H86.4629L85.9062 228.52C85.724 228.949 85.6328 229.304 85.6328 229.584C85.6328 229.955 85.7826 230.229 86.082 230.404C86.2578 230.508 86.6908 230.587 87.3809 230.639V231H82.9766V230.639C83.4518 230.567 83.8424 230.372 84.1484 230.053C84.4544 229.727 84.832 229.06 85.2812 228.051L90.0176 217.484H90.2031L94.9785 228.344C95.4342 229.372 95.8086 230.02 96.1016 230.287C96.3229 230.489 96.6354 230.606 97.0391 230.639V231H90.6328V230.639H90.8965C91.4108 230.639 91.7721 230.567 91.9805 230.424C92.1237 230.32 92.1953 230.17 92.1953 229.975C92.1953 229.857 92.1758 229.737 92.1367 229.613C92.1237 229.555 92.026 229.311 91.8438 228.881L91.1406 227.23ZM90.8086 226.508L88.8359 221.947L86.8047 226.508H90.8086Z" fill="#808080"/>
<path d="M106.17 223.979C107.426 224.271 108.309 224.626 108.816 225.043C109.546 225.635 109.91 226.404 109.91 227.348C109.91 228.344 109.51 229.167 108.709 229.818C107.726 230.606 106.297 231 104.422 231H97.6934V230.639C98.3053 230.639 98.7188 230.583 98.9336 230.473C99.1549 230.355 99.3079 230.206 99.3926 230.023C99.4837 229.841 99.5293 229.392 99.5293 228.676V220.082C99.5293 219.366 99.4837 218.917 99.3926 218.734C99.3079 218.546 99.1549 218.396 98.9336 218.285C98.7122 218.174 98.2988 218.119 97.6934 218.119V217.758H104.041C105.558 217.758 106.632 217.895 107.264 218.168C107.895 218.435 108.393 218.839 108.758 219.379C109.122 219.913 109.305 220.482 109.305 221.088C109.305 221.726 109.074 222.296 108.611 222.797C108.149 223.292 107.335 223.686 106.17 223.979ZM102.615 223.715C103.54 223.715 104.22 223.611 104.656 223.402C105.099 223.194 105.438 222.901 105.672 222.523C105.906 222.146 106.023 221.664 106.023 221.078C106.023 220.492 105.906 220.014 105.672 219.643C105.444 219.265 105.115 218.979 104.686 218.783C104.256 218.588 103.566 218.493 102.615 218.5V223.715ZM102.615 224.477V228.725L102.605 229.213C102.605 229.564 102.693 229.831 102.869 230.014C103.051 230.189 103.318 230.277 103.67 230.277C104.191 230.277 104.669 230.163 105.105 229.936C105.548 229.701 105.887 229.366 106.121 228.93C106.355 228.487 106.473 227.995 106.473 227.455C106.473 226.837 106.329 226.283 106.043 225.795C105.757 225.3 105.363 224.955 104.861 224.76C104.36 224.564 103.611 224.47 102.615 224.477Z" fill="#808080"/>
<path d="M117.938 230.639V231H111.014V230.639H111.453C111.837 230.639 112.146 230.57 112.381 230.434C112.55 230.342 112.68 230.186 112.771 229.965C112.843 229.809 112.879 229.398 112.879 228.734V220.023C112.879 219.346 112.843 218.923 112.771 218.754C112.7 218.585 112.553 218.438 112.332 218.314C112.117 218.184 111.824 218.119 111.453 218.119H111.014V217.758H117.938V218.119H117.498C117.114 218.119 116.805 218.188 116.57 218.324C116.401 218.415 116.268 218.572 116.17 218.793C116.098 218.949 116.062 219.359 116.062 220.023V228.734C116.062 229.411 116.098 229.835 116.17 230.004C116.248 230.173 116.395 230.323 116.609 230.453C116.831 230.577 117.127 230.639 117.498 230.639H117.938Z" fill="#808080"/>
<path d="M131.023 217.758V221.342H130.672C130.464 220.515 130.232 219.923 129.979 219.564C129.725 219.2 129.376 218.91 128.934 218.695C128.686 218.578 128.253 218.52 127.635 218.52H126.648V228.734C126.648 229.411 126.684 229.835 126.756 230.004C126.834 230.173 126.98 230.323 127.195 230.453C127.417 230.577 127.716 230.639 128.094 230.639H128.533V231H121.6V230.639H122.039C122.423 230.639 122.732 230.57 122.967 230.434C123.136 230.342 123.27 230.186 123.367 229.965C123.439 229.809 123.475 229.398 123.475 228.734V218.52H122.518C121.626 218.52 120.978 218.708 120.574 219.086C120.008 219.613 119.65 220.365 119.5 221.342H119.129V217.758H131.023Z" fill="#808080"/>
<path d="M200 100C200 155.228 155.228 200 100 200C44.7715 200 0 155.228 0 100C0 44.7715 44.7715 0 100 0C155.228 0 200 44.7715 200 100Z" fill="#808080"/>
<path fill-rule="evenodd" clip-rule="evenodd" d="M98.5818 59.2597L120.146 65.1219C122.107 65.6548 123.683 66.953 124.614 68.6037C125.561 70.2694 125.874 72.2905 125.35 74.2691L112.357 123.462C111.832 125.455 110.553 127.052 108.928 127.996C107.284 128.96 105.295 129.274 103.343 128.744L81.7774 122.882C79.8149 122.349 78.239 121.052 77.3096 119.401C76.3613 117.737 76.0489 115.717 76.5728 113.735L89.5681 64.5316C90.0934 62.5406 91.3717 60.9418 92.9988 59.9976C94.6393 59.037 96.6193 58.7254 98.5818 59.2597ZM127.332 87.2575C126.877 86.4868 127.125 85.4866 127.886 85.0247C128.646 84.5642 129.63 84.8156 130.085 85.5863L133.772 91.823C134.227 92.5937 133.979 93.5939 133.218 94.0544L128.615 96.4266L131.408 100.404C131.921 101.137 131.753 102.154 131.031 102.676C130.96 102.726 130.886 102.771 130.81 102.808L126.198 105.135L128.992 109.992C129.435 110.771 129.174 111.767 128.406 112.218L122.074 116.037C121.314 116.495 120.331 116.241 119.88 115.47C119.428 114.698 119.679 113.7 120.439 113.244L125.416 110.238L122.508 105.173C122.116 104.367 122.442 103.39 123.236 102.993L127.701 100.739L124.935 96.7983C124.881 96.7259 124.832 96.6466 124.791 96.5633C124.392 95.7598 124.71 94.7814 125.502 94.3755L130.133 91.9951L127.332 87.2575ZM79.8876 71.9406C80.6621 71.5034 81.6387 71.7862 82.0697 72.572C82.4994 73.3577 82.2205 74.3484 81.446 74.7843L76.686 77.4667L79.528 81.8845C80.0102 82.6375 79.7987 83.6459 79.0566 84.1351C78.9731 84.1898 78.8855 84.2363 78.7966 84.2745L74.4824 86.2709L77.2436 90.4934C77.7339 91.2436 77.5305 92.2548 76.791 92.7508L71.7885 95.6587L74.6157 100.783C75.0494 101.569 74.7746 102.562 74.0002 103.004C73.2257 103.444 72.2464 103.163 71.8127 102.378L68.2123 95.8541C67.7719 95.0711 68.0386 94.0749 68.809 93.6281L73.6163 90.8405L70.7662 86.4827C70.723 86.4117 70.6826 86.3365 70.6476 86.2586C70.2799 85.4429 70.6342 84.4768 71.4396 84.1037L75.8199 82.0758L72.9994 77.684C72.5697 76.8982 72.8472 75.9075 73.6217 75.4716L79.8876 71.9406ZM94.611 118.051C96.2193 118.488 97.1864 120.16 96.75 121.81C96.319 123.445 94.6717 124.426 93.0432 123.983C92.0438 123.713 91.2922 122.964 90.9703 122.041C90.7736 121.477 90.7372 120.848 90.9016 120.221C91.3326 118.591 92.9799 117.607 94.611 118.051ZM79.0754 111.407L111.336 120.177L123.415 74.4427L91.1548 65.674L79.0754 111.407Z" fill="white"/>
<path d="M36.3525 158.091V143.091H37.9718V144.824H38.1706C38.2937 144.634 38.4642 144.393 38.682 144.099C38.9045 143.801 39.2218 143.536 39.6337 143.304C40.0504 143.067 40.6138 142.949 41.324 142.949C42.2426 142.949 43.0523 143.179 43.753 143.638C44.4538 144.097 45.0007 144.748 45.3936 145.591C45.7866 146.434 45.9831 147.428 45.9831 148.574C45.9831 149.729 45.7866 150.731 45.3936 151.578C45.0007 152.421 44.4561 153.074 43.7601 153.538C43.0641 153.998 42.2615 154.227 41.3525 154.227C40.6517 154.227 40.0906 154.111 39.6692 153.879C39.2478 153.643 38.9235 153.375 38.6962 153.077C38.4689 152.774 38.2937 152.523 38.1706 152.324H38.0286V158.091H36.3525ZM38.0002 148.545C38.0002 149.369 38.1209 150.096 38.3624 150.726C38.6039 151.351 38.9566 151.841 39.4206 152.196C39.8846 152.546 40.4528 152.722 41.1252 152.722C41.8259 152.722 42.4107 152.537 42.8794 152.168C43.3529 151.794 43.708 151.292 43.9448 150.662C44.1863 150.027 44.307 149.322 44.307 148.545C44.307 147.778 44.1886 147.087 43.9519 146.472C43.7199 145.851 43.3671 145.361 42.8936 145.001C42.4249 144.637 41.8354 144.455 41.1252 144.455C40.4434 144.455 39.8704 144.627 39.4064 144.973C38.9424 145.314 38.592 145.792 38.3553 146.408C38.1185 147.018 38.0002 147.731 38.0002 148.545Z" fill="white"/>
<path d="M50.2161 147.438V154H48.54V139.455H50.2161V144.795H50.3581C50.6138 144.232 50.9973 143.785 51.5087 143.453C52.0248 143.117 52.7114 142.949 53.5684 142.949C54.3117 142.949 54.9628 143.098 55.5215 143.396C56.0802 143.69 56.5134 144.142 56.8212 144.753C57.1337 145.359 57.29 146.131 57.29 147.068V154H55.6138V147.182C55.6138 146.315 55.3889 145.645 54.9391 145.172C54.494 144.694 53.8761 144.455 53.0854 144.455C52.5362 144.455 52.0437 144.571 51.6081 144.803C51.1773 145.035 50.8364 145.373 50.5854 145.818C50.3392 146.263 50.2161 146.803 50.2161 147.438Z" fill="white"/>
<path d="M64.7882 154.227C63.8033 154.227 62.9392 153.993 62.1958 153.524C61.4572 153.055 60.8796 152.4 60.4629 151.557C60.051 150.714 59.845 149.729 59.845 148.602C59.845 147.466 60.051 146.474 60.4629 145.626C60.8796 144.779 61.4572 144.121 62.1958 143.652C62.9392 143.183 63.8033 142.949 64.7882 142.949C65.773 142.949 66.6348 143.183 67.3734 143.652C68.1168 144.121 68.6944 144.779 69.1064 145.626C69.523 146.474 69.7314 147.466 69.7314 148.602C69.7314 149.729 69.523 150.714 69.1064 151.557C68.6944 152.4 68.1168 153.055 67.3734 153.524C66.6348 153.993 65.773 154.227 64.7882 154.227ZM64.7882 152.722C65.5363 152.722 66.1518 152.53 66.6348 152.146C67.1177 151.763 67.4752 151.259 67.7072 150.634C67.9392 150.009 68.0552 149.331 68.0552 148.602C68.0552 147.873 67.9392 147.194 67.7072 146.564C67.4752 145.934 67.1177 145.425 66.6348 145.037C66.1518 144.649 65.5363 144.455 64.7882 144.455C64.0401 144.455 63.4245 144.649 62.9416 145.037C62.4586 145.425 62.1011 145.934 61.8691 146.564C61.6371 147.194 61.5211 147.873 61.5211 148.602C61.5211 149.331 61.6371 150.009 61.8691 150.634C62.1011 151.259 62.4586 151.763 62.9416 152.146C63.4245 152.53 64.0401 152.722 64.7882 152.722Z" fill="white"/>
<path d="M73.9661 147.438V154H72.2899V143.091H73.9093V144.795H74.0513C74.307 144.241 74.6953 143.796 75.2161 143.46C75.7369 143.119 76.4093 142.949 77.2331 142.949C77.9718 142.949 78.6181 143.1 79.1721 143.403C79.726 143.702 80.1569 144.156 80.4647 144.767C80.7724 145.373 80.9263 146.14 80.9263 147.068V154H79.2502V147.182C79.2502 146.325 79.0276 145.657 78.5826 145.179C78.1375 144.696 77.5267 144.455 76.7502 144.455C76.2151 144.455 75.7369 144.571 75.3155 144.803C74.8989 145.035 74.5698 145.373 74.3283 145.818C74.0868 146.263 73.9661 146.803 73.9661 147.438Z" fill="white"/>
<path d="M88.563 154.227C87.5119 154.227 86.6052 153.995 85.8429 153.531C85.0853 153.062 84.5005 152.409 84.0886 151.571C83.6814 150.728 83.4778 149.748 83.4778 148.631C83.4778 147.513 83.6814 146.528 84.0886 145.676C84.5005 144.819 85.0734 144.152 85.8074 143.673C86.546 143.19 87.4077 142.949 88.3926 142.949C88.9608 142.949 89.5218 143.044 90.0758 143.233C90.6298 143.422 91.1341 143.73 91.5886 144.156C92.0431 144.578 92.4054 145.136 92.6752 145.832C92.9451 146.528 93.0801 147.385 93.0801 148.403V149.114H84.671V147.665H91.3755C91.3755 147.049 91.2524 146.5 91.0062 146.017C90.7647 145.534 90.4191 145.153 89.9693 144.874C89.5242 144.594 88.9986 144.455 88.3926 144.455C87.725 144.455 87.1473 144.62 86.6596 144.952C86.1767 145.278 85.805 145.705 85.5446 146.23C85.2841 146.756 85.1539 147.319 85.1539 147.92V148.886C85.1539 149.71 85.296 150.409 85.5801 150.982C85.8689 151.55 86.269 151.983 86.7804 152.281C87.2917 152.575 87.886 152.722 88.563 152.722C89.0034 152.722 89.4011 152.66 89.7562 152.537C90.1161 152.409 90.4262 152.22 90.6866 151.969C90.947 151.713 91.1483 151.396 91.2903 151.017L92.9096 151.472C92.7392 152.021 92.4527 152.504 92.0502 152.92C91.6478 153.332 91.1506 153.654 90.5588 153.886C89.9669 154.114 89.3017 154.227 88.563 154.227Z" fill="white"/>
<path d="M101.482 154V139.455H103.158V144.824H103.3C103.423 144.634 103.594 144.393 103.812 144.099C104.034 143.801 104.351 143.536 104.763 143.304C105.18 143.067 105.743 142.949 106.454 142.949C107.372 142.949 108.182 143.179 108.883 143.638C109.583 144.097 110.13 144.748 110.523 145.591C110.916 146.434 111.113 147.428 111.113 148.574C111.113 149.729 110.916 150.731 110.523 151.578C110.13 152.421 109.586 153.074 108.89 153.538C108.194 153.998 107.391 154.227 106.482 154.227C105.781 154.227 105.22 154.111 104.799 153.879C104.377 153.643 104.053 153.375 103.826 153.077C103.599 152.774 103.423 152.523 103.3 152.324H103.101V154H101.482ZM103.13 148.545C103.13 149.369 103.251 150.096 103.492 150.726C103.733 151.351 104.086 151.841 104.55 152.196C105.014 152.546 105.582 152.722 106.255 152.722C106.956 152.722 107.54 152.537 108.009 152.168C108.483 151.794 108.838 151.292 109.074 150.662C109.316 150.027 109.437 149.322 109.437 148.545C109.437 147.778 109.318 147.087 109.081 146.472C108.849 145.851 108.497 145.361 108.023 145.001C107.555 144.637 106.965 144.455 106.255 144.455C105.573 144.455 105 144.627 104.536 144.973C104.072 145.314 103.722 145.792 103.485 146.408C103.248 147.018 103.13 147.731 103.13 148.545Z" fill="white"/>
<path d="M120.552 149.54V143.091H122.228V154H120.552V152.153H120.438C120.182 152.707 119.785 153.178 119.245 153.567C118.705 153.95 118.023 154.142 117.199 154.142C116.518 154.142 115.912 153.993 115.381 153.695C114.851 153.392 114.434 152.937 114.131 152.331C113.828 151.72 113.677 150.951 113.677 150.023V143.091H115.353V149.909C115.353 150.705 115.575 151.339 116.02 151.812C116.47 152.286 117.043 152.523 117.739 152.523C118.156 152.523 118.58 152.416 119.01 152.203C119.446 151.99 119.811 151.663 120.104 151.223C120.403 150.783 120.552 150.222 120.552 149.54Z" fill="white"/>
<path d="M124.985 154V152.722L131.178 144.767V144.653H125.184V143.091H133.338V144.426L127.315 152.324V152.438H133.536V154H124.985Z" fill="white"/>
<path d="M135.806 154V152.722L141.999 144.767V144.653H136.004V143.091H144.158V144.426L138.135 152.324V152.438H144.357V154H135.806Z" fill="white"/>
<path d="M151.2 154.227C150.149 154.227 149.242 153.995 148.48 153.531C147.722 153.062 147.137 152.409 146.725 151.571C146.318 150.728 146.115 149.748 146.115 148.631C146.115 147.513 146.318 146.528 146.725 145.676C147.137 144.819 147.71 144.152 148.444 143.673C149.183 143.19 150.044 142.949 151.029 142.949C151.597 142.949 152.159 143.044 152.713 143.233C153.267 143.422 153.771 143.73 154.225 144.156C154.68 144.578 155.042 145.136 155.312 145.832C155.582 146.528 155.717 147.385 155.717 148.403V149.114H147.308V147.665H154.012C154.012 147.049 153.889 146.5 153.643 146.017C153.401 145.534 153.056 145.153 152.606 144.874C152.161 144.594 151.635 144.455 151.029 144.455C150.362 144.455 149.784 144.62 149.296 144.952C148.813 145.278 148.442 145.705 148.181 146.23C147.921 146.756 147.791 147.319 147.791 147.92V148.886C147.791 149.71 147.933 150.409 148.217 150.982C148.506 151.55 148.906 151.983 149.417 152.281C149.928 152.575 150.523 152.722 151.2 152.722C151.64 152.722 152.038 152.66 152.393 152.537C152.753 152.409 153.063 152.22 153.323 151.969C153.584 151.713 153.785 151.396 153.927 151.017L155.546 151.472C155.376 152.021 155.089 152.504 154.687 152.92C154.285 153.332 153.787 153.654 153.195 153.886C152.604 154.114 151.938 154.227 151.2 154.227Z" fill="white"/>
<path d="M165.994 145.534L164.488 145.96C164.393 145.709 164.254 145.465 164.069 145.229C163.889 144.987 163.643 144.788 163.33 144.632C163.018 144.476 162.618 144.398 162.13 144.398C161.463 144.398 160.906 144.552 160.461 144.859C160.021 145.162 159.801 145.548 159.801 146.017C159.801 146.434 159.952 146.763 160.255 147.004C160.558 147.246 161.032 147.447 161.676 147.608L163.295 148.006C164.27 148.242 164.997 148.605 165.475 149.092C165.954 149.575 166.193 150.198 166.193 150.96C166.193 151.585 166.013 152.144 165.653 152.636C165.298 153.129 164.801 153.517 164.161 153.801C163.522 154.085 162.779 154.227 161.931 154.227C160.819 154.227 159.898 153.986 159.169 153.503C158.439 153.02 157.978 152.314 157.784 151.386L159.374 150.989C159.526 151.576 159.812 152.016 160.234 152.31C160.66 152.603 161.216 152.75 161.903 152.75C162.684 152.75 163.304 152.584 163.764 152.253C164.228 151.917 164.46 151.514 164.46 151.045C164.46 150.667 164.327 150.349 164.062 150.094C163.797 149.833 163.39 149.639 162.84 149.511L161.022 149.085C160.023 148.848 159.289 148.482 158.82 147.984C158.356 147.482 158.124 146.855 158.124 146.102C158.124 145.487 158.297 144.942 158.643 144.469C158.993 143.995 159.469 143.624 160.07 143.354C160.677 143.084 161.363 142.949 162.13 142.949C163.21 142.949 164.057 143.186 164.673 143.659C165.293 144.133 165.733 144.758 165.994 145.534Z" fill="white"/>
<path d="M89 26.5C89 20.701 93.701 16 99.5 16C105.299 16 110 20.701 110 26.5C110 32.299 105.299 37 99.5 37C93.701 37 89 32.299 89 26.5Z" fill="white"/>
<path d="M100.781 21.5455V31H99.6362V22.7457H99.5808L97.2726 24.2784V23.1151L99.6362 21.5455H100.781Z" fill="black"/>
</svg>
